<?xml version="1.0" encoding="UTF-8"?>
<svg id="Layer_1" data-name="Layer 1" xmlns="http://www.w3.org/2000/svg" viewBox="0 0 1000 840">
  <defs>
    <style>
      .cls-1 {
        fill: #fff;
      }
    </style>
  </defs>
  <g id="Ahmedia">
    <path class="cls-1" d="m580.95,513.91h197.01v-10.61l-1.05-.84c-14.62-11.69-28.47-34.78-41.16-68.61-11.61-31.38-41.83-122.06-89.84-269.53-10.09-30.69-11.85-55.09-5.22-72.5,4.82-12.83,13.32-20.95,25.26-24.14l2.08-.55v-11.41h-336.07v11.41l2.08.55c11.94,3.19,20.44,11.32,25.26,24.16,6.63,17.4,4.88,41.79-5.23,72.49-47.99,147.43-78.22,238.11-89.83,269.51-12.69,33.85-26.54,56.94-41.16,68.63l-1.05.84v10.61h197.01c-30.09-11.35-30.97-27.33-30.97-27.33l53.1-73.03c-18.39-3.28-29.99-8.08-29.99-13.42,0-9.9,39.76-17.92,88.81-17.92s88.81,8.02,88.81,17.92c0,5.34-11.6,10.14-29.99,13.42l53.1,73.03s-.88,15.98-30.97,27.33Zm-126.67-217.66l41.58-130.85h8.27l41.59,130.85h-91.44Z"/>
    <g>
      <path class="cls-1" d="m750.12,70.22h-14.41v30.21h7.99v-9.38h2.8l7.16,9.38h8.56v-1.73l-7.49-9.22c10.95-2.47,8.73-19.27-4.61-19.27Zm0,14.08h-6.42v-6.92h6.42c4.69,0,4.69,6.92,0,6.92Z"/>
      <path class="cls-1" d="m747.57,55.32c-19.02,0-29.72,13.75-29.72,30.05s10.7,30.05,29.72,30.05,29.8-13.75,29.8-30.05-10.7-30.05-29.8-30.05Zm0,52.28c-13.34,0-20.91-9.8-20.99-22.23.08-12.43,7.66-22.23,20.99-22.23s20.99,9.8,20.99,22.23-7.57,22.23-20.99,22.23Z"/>
    </g>
  </g>
  <g id="Delivery">
    <path class="cls-1" d="m47,606.82c.37-1.38.7-2.78,1.13-4.15,1.12-3.59,3.12-6.62,5.68-9.39,3.44-3.73,7.53-6.27,12.43-7.45,1.64-.4,3.36-.65,5.05-.66,8.6-.06,17.2-.06,25.8-.02,3.55.02,7.11,0,10.64.3,8.68.73,17.12,2.53,25.22,5.86,6.8,2.8,13.04,6.52,18.69,11.14,3.51,2.87,6.84,6.01,9.9,9.35,4.34,4.74,8.08,9.95,11.1,15.67,3.79,7.17,6.51,14.71,7.93,22.69.45,2.56.66,5.16.9,7.75.23,2.47.52,4.95.52,7.42,0,2.8-.34,5.59-.47,8.39-.07,1.6-.04,3.2-.01,4.8.01.58.2,1.15.24,1.72.11,1.62.33,3.26.25,4.87-.18,3.74-.52,7.47-.79,11.2-.36,4.8-1.36,9.49-2.76,14.08-2.99,9.77-7.75,18.58-14.3,26.45-7.57,9.1-16.45,16.55-27.1,21.79-6.26,3.08-12.86,5.15-19.69,6.51-6.56,1.31-13.2,1.75-19.84,1.33-3.5-.23-6.95-1.29-9.98-3.25-.83-.54-1.56-.66-2.47-.1-3.79,2.34-7.93,3.37-12.4,3.48-4.57.11-8.88-.78-12.87-2.85-3.71-1.92-6.72-4.73-8.98-8.33-1.87-2.97-2.99-6.17-3.57-9.59-.02-.14-.17-.27-.26-.4,0-46.2,0-92.4,0-138.6Zm38.29,16.61c4.02,0,7.81-.09,11.6.03,3.75.11,7.5.35,11.24.67,5.93.51,11.37,2.59,16.3,5.84,11.84,7.8,18.27,18.87,19.11,33,.23,3.91.08,7.94-.61,11.79-2.4,13.43-10,23.25-21.9,29.7-6.54,3.55-13.7,4.81-21.11,4.75-3.09-.03-5.81,1.12-7.99,3.26-3.81,3.74-4.46,8.4-3.34,13.37,1.18,5.29,5.83,8.94,11.23,8.85,3.66-.06,7.34-.22,10.98-.55,8.93-.81,17.19-3.76,24.93-8.21,4.61-2.65,8.79-5.93,12.63-9.58,2.64-2.51,5.07-5.28,7.31-8.15,3.66-4.7,6.6-9.85,8.85-15.41,2.68-6.61,3.98-13.51,4.58-20.55.23-2.73.15-5.5.01-8.24-.18-3.6-.33-7.22-.89-10.77-1.31-8.43-4.41-16.23-8.91-23.48-4.23-6.81-9.56-12.64-15.81-17.64-4.47-3.58-9.34-6.53-14.6-8.79-8.67-3.73-17.8-5.4-27.16-5.52-10.36-.13-20.72.13-31.08.23-5.32.05-11.08,6.51-11.07,11.69.06,37.87,0,75.74.07,113.61,0,4.14,2.03,7.42,5.56,9.72,3.04,1.98,6.42,1.87,9.77,1.56,2.9-.27,5.33-1.81,7.22-3.97,2.35-2.69,3.08-6.01,3.08-9.52,0-31.92,0-63.85,0-95.77,0-.58,0-1.17,0-1.92Zm12.71,31.72v41.49c.85-.1,1.6-.21,2.35-.26.82-.06,1.64-.04,2.45-.09,1.35-.09,2.72-.07,4.04-.35,10.41-2.17,17.8-8.1,22.07-17.88.6-1.38.89-2.73.15-4.16-.9-1.73-1.6-3.59-2.66-5.22-6.66-10.27-16.54-13.86-28.39-13.54Z"/>
    <path class="cls-1" d="m952.97,702.23c0,17.29.08,34.58-.03,51.87-.05,8.57-1.63,16.89-5.5,24.62-1.91,3.82-4.38,7.29-7.14,10.6-4.18,5.02-9.07,9.11-14.7,12.34-4.31,2.48-8.93,4.13-13.76,5.32-5.29,1.3-10.67,1.58-16.04,1.21-2.68-.18-5.36-1.11-7.95-1.97-4-1.33-7.14-4.07-9.78-7.21-2.7-3.2-4.43-6.99-4.95-11.21-.57-4.64-.5-9.21.95-13.75.35-1.1-.54-2.56-.66-3.87-.26-2.87-.49-5.76-.52-8.64-.01-1.23-.43-1.86-1.43-2.41-4.08-2.23-7.74-5.05-10.95-8.38-6.84-7.09-11.51-15.43-13.74-25.08-.95-4.09-1.4-8.22-1.39-12.43.04-21.96-.03-43.91.06-65.87.02-4.92,1.78-9.41,4.75-13.35,3.76-5,8.8-8.17,14.89-9.23,3.11-.54,6.39-.18,9.59-.12,3.5.07,6.7,1.26,9.74,2.9,3.5,1.89,6.26,4.54,8.28,7.98,1.86,3.18,3.07,6.54,3.22,10.26.09,2.26.38,4.52.39,6.78.04,13.49.02,26.99.01,40.48,0,1.29.32,2.33,1.66,2.81,1.22.44,2.9.17,3.43-.89.46-.92.64-2.08.65-3.13.04-14.32,0-28.63.04-42.95.02-7.86,2.97-14.35,9.24-19.27,4.41-3.46,9.35-5.18,14.94-5.29,4.5-.09,8.86.5,12.9,2.53,2.96,1.48,5.58,3.43,7.76,6.05,2.96,3.55,4.94,7.47,5.62,12.02.27,1.78.42,3.6.42,5.41.03,17.29.02,34.58.02,51.87Zm-38.42,29.37c0,1.31,0,2.49,0,3.66.02,2.75-.47,5.41-2.08,7.66-1.23,1.72-2.59,3.43-4.21,4.76-1.95,1.6-4.24,2.77-6.89,2.96-2.11.15-4.23.24-6.31.57-2.93.47-5.28,1.98-7.11,4.37-2.15,2.8-2.61,5.96-2.53,9.37.12,4.85,3.26,9.49,8.08,10.9,4.21,1.23,8.58.8,12.81.19,4.86-.7,9.52-2.31,13.78-4.87,6.91-4.16,12.28-9.79,15.95-16.98,3.11-6.11,4.27-12.73,4.27-19.49,0-28.89-.14-57.77-.24-86.66-.01-3.79-1.95-6.67-4.86-8.78-3.15-2.28-6.8-2.61-10.62-2.02-5.89.9-9.92,6.3-9.9,11.8.03,14.36.03,28.73,0,43.09,0,3.01-.32,6.03-1.93,8.65-3.97,6.49-9.89,9.05-17.43,7.46-6.85-1.45-11.67-7.71-11.65-14.64.03-11.07.05-22.14,0-33.21-.02-4.73-.22-9.46-.4-14.19-.13-3.41-2.98-6.96-6.22-8.12-3.16-1.13-6.38-1.43-9.66-.8-5.38,1.04-9.25,5.65-9.31,10.8-.15,15.09-.1,30.19-.02,45.28.02,2.96.3,5.96.83,8.88,1.3,7.17,4.47,13.51,9.36,18.89,3.92,4.31,8.52,7.77,13.96,10,4.49,1.84,9.11,3.07,14.01,3.02,2.06-.02,4.13.16,6.17-.04,2.61-.26,5.21-.75,7.79-1.26,1.43-.28,2.82-.8,4.38-1.26Z"/>
    <path class="cls-1" d="m708.31,705.31c2.11,2.7,3.8,5.49,4.65,8.69.99,3.75,1.37,7.55.68,11.39-.34,1.88-.87,3.72-1.29,5.58-.07.29-.08.65.03.92,1.64,4.26,1.82,8.65,1.29,13.14-.53,4.49-2.13,8.47-4.91,12.02-3.64,4.64-8.29,7.67-14.05,8.92-1.61.35-3.29.53-4.93.55-6.91.06-13.81.03-20.72.02-6.23-.01-12.27-1.14-18.15-3.15-6.1-2.08-11.81-4.93-16.79-9.08-2.65-2.22-5.38-4.39-7.73-6.9-5.51-5.91-9.88-12.6-12.56-20.29-1.51-4.34-2.82-8.74-3.09-13.35-.25-4.3-.44-8.6-.53-12.91-.03-1.37.46-2.74.48-4.12.04-1.76-.16-3.52-.24-5.28-.1-2.22-.25-4.44-.27-6.66-.07-10.4,2.41-20.19,7.31-29.34,2.14-4,4.73-7.73,7.92-10.99,1.95-1.99,3.8-4.11,5.92-5.92,3.26-2.79,6.77-5.24,10.6-7.25,5.25-2.76,10.78-4.59,16.56-5.84,5.57-1.2,11.21-1.36,16.83-1.02,10.32.61,19.91,3.74,28.86,8.94,4.03,2.34,7.86,4.92,11.11,8.26,3.6,3.69,6.4,7.92,7.4,13.07.97,5.01.98,10-.93,14.85-.16.41-.12.99.05,1.41,1.48,3.73,1.71,7.63,1.4,11.54-.55,7.09-3.97,12.65-9.41,17.15-1.99,1.64-3.63,3.71-5.5,5.66Zm-31.91-42.51c.1.21.2.42.29.64-.37.26-.78.47-1.09.78-4.42,4.38-8.87,8.72-13.21,13.17-2.83,2.9-4.47,6.32-3.64,10.52,1.04,5.23,4.03,8.93,9.08,10.62,4.88,1.63,9.18.13,12.79-3.36,4.72-4.55,9.38-9.16,14.05-13.77,2.21-2.18,4.35-4.43,6.57-6.61,2.2-2.16,4.51-4.22,6.67-6.43,3.18-3.26,3.88-9.86,1.16-13.51-1.8-2.42-4.09-4.51-6.3-6.6-3.5-3.3-7.67-5.53-12.04-7.53-5.04-2.31-10.36-3.27-15.78-3.68-4.65-.35-9.33-.08-13.92.83-11.15,2.21-20.29,7.86-27.52,16.58-6.5,7.85-9.9,17.03-10.64,27.1-.3,4.08,0,8.26.52,12.34,1.24,9.82,5.41,18.38,12.12,25.64,4.7,5.08,10.21,9.11,16.66,11.75,4.4,1.81,8.96,3.18,13.71,3.37,6.89.27,13.8.18,20.7.17,1.8,0,3.62-.12,5.39-.41,2.85-.47,5.12-2.02,6.83-4.32,2.07-2.78,2.69-5.96,2.5-9.38-.17-2.97-1.17-5.58-3.19-7.75-2.64-2.83-6.05-3.85-9.79-3.9-5.72-.06-11.43-.01-17.15-.02-7.6,0-13.74-3.16-18.18-9.17-3.63-4.92-5.27-10.55-4.42-16.8.84-6.21,3.45-11.34,8.39-15.3,4.01-3.21,8.49-4.91,13.61-4.96,1.94-.02,3.88,0,5.82,0Z"/>
    <path class="cls-1" d="m302.14,705.32c2.46,2.93,4.19,6.23,5,9.91.6,2.7,1.21,5.44.61,8.26-.53,2.52-1.02,5.06-1.36,7.61-.11.84.38,1.75.52,2.64.39,2.54,1.09,5.1,1.03,7.64-.25,10.61-5,18.54-14.73,23.15-2.79,1.32-5.82,2.01-8.94,2.02-7.18.02-14.36.05-21.54,0-7.53-.06-14.72-1.81-21.7-4.58-4.65-1.85-9.01-4.29-12.84-7.42-3.62-2.96-6.97-6.32-10.08-9.81-6.75-7.58-10.7-16.56-12.78-26.46-1.35-6.43-1.6-12.92-.94-19.36.54-5.23-.54-10.33-.31-15.51.34-7.75,1.66-15.24,4.67-22.41,2.36-5.62,5.51-10.75,9.53-15.36,4.92-5.65,10.48-10.45,17.09-14.03,5.14-2.79,10.61-4.54,16.29-5.9,5.77-1.38,11.57-1.51,17.38-1.23,6.87.32,13.52,1.95,19.93,4.55,5.09,2.06,9.89,4.61,14.36,7.76,5.82,4.09,10.59,9.12,12.68,16.11.77,2.58,1.27,5.35,1.25,8.03-.02,2.62-.76,5.27-1.4,7.85-.26,1.04-.26,1.89-.02,2.93.63,2.72,1.45,5.51,1.43,8.26-.05,8.11-3.39,14.72-9.77,19.84-1.96,1.58-3.53,3.64-5.34,5.56Zm-31.94-42.52c.11.21.21.43.32.64-.37.25-.79.46-1.1.77-4.57,4.55-9.15,9.09-13.68,13.68-2.8,2.83-3.76,6.39-3.11,10.16,1.02,5.96,6.51,11.64,13.4,11.04,2.91-.25,5.41-1.14,7.48-3.07,3.4-3.17,6.69-6.45,10.01-9.7,5.09-4.98,10.17-9.96,15.23-14.97,1.39-1.38,2.93-2.71,3.98-4.33,2.24-3.46,2.59-7.2.77-11.01-1.24-2.59-3.15-4.59-5.3-6.5-3.57-3.16-7.43-5.79-11.72-7.89-6.16-3.01-12.67-4.52-19.47-4.57-3.68-.02-7.38.43-11.05.79-4.1.4-7.96,1.74-11.67,3.46-7.03,3.25-12.95,7.96-17.68,14.11-2.99,3.89-5.43,8.08-7.05,12.74-1.6,4.59-2.51,9.27-2.73,14.12-.25,5.54-.06,11.03,1.27,16.41,1.62,6.54,4.45,12.52,8.74,17.78,9.73,11.92,22.17,18.26,37.65,18.37,4.76.03,9.51,0,14.27,0,1.87,0,3.77.14,5.62-.08,9.39-1.11,12.91-10.24,10.01-17.91-2.03-5.37-6-7.62-12.21-7.77-5.9-.14-11.8-.02-17.7-.04-1.14,0-2.31.06-3.41-.17-7.51-1.59-13.02-5.93-16.45-12.73-2.87-5.69-2.96-11.73-1.18-17.77,1.48-5.01,4.74-8.76,8.94-11.73,3.75-2.65,7.93-3.97,12.55-3.85,1.76.05,3.51,0,5.27,0Z"/>
    <path class="cls-1" d="m535.84,650.95c1.1-2.71,2-5.27,3.18-7.7,1.7-3.5,3.31-7.09,5.48-10.28,3.12-4.59,7.75-7.24,13.23-8.16,9.8-1.65,18.36.78,25.18,8.22,3.29,3.59,5.39,7.76,5.91,12.74.46,4.41.19,8.67-1.2,12.87-.11.34-.11.79,0,1.14,2.2,6.69,1.88,13.24-.69,19.8-4.53,11.53-8.92,23.12-13.39,34.67-3.91,10.1-7.84,20.19-11.79,30.27-1.82,4.66-3.4,9.42-6.33,13.57-3.7,5.24-8.54,8.76-14.91,9.79-6.43,1.03-12.65.41-18.16-3.52-3.68-2.62-6.56-6.04-8.4-10.12-2.25-4.97-4.14-10.11-6.14-15.19-2.4-6.09-4.77-12.19-7.13-18.3-2.39-6.18-4.76-12.37-7.14-18.56-2.47-6.39-5.03-12.75-7.39-19.17-1.35-3.68-2.8-7.41-3.46-11.25-.64-3.69-.28-7.55,1.21-11.14.39-.94.38-1.78.02-2.74-1.41-3.74-1.77-7.69-1.27-11.57.58-4.47,2.12-8.66,5.13-12.25,3.28-3.92,7.21-6.79,12.03-8.39,6.5-2.15,13-1.9,19.26.82,4.21,1.83,7.32,5.05,9.67,9.01,2.71,4.56,4.62,9.46,6.54,14.37.12.31.31.59.57,1.07Zm.07,34.97c-.19-.37-.32-.59-.42-.83-5.12-13.18-10.23-26.37-15.37-39.54-1.02-2.62-2.34-5.05-4.86-6.62-2.96-1.84-6.12-2.32-9.51-1.64-4.26.85-7.53,3.04-9.49,7-1.9,3.83-1.27,7.65.18,11.42,2.93,7.59,5.95,15.14,8.87,22.72,3.44,8.92,6.79,17.87,10.23,26.79,2.32,6.01,4.64,12.02,7.11,17.97,1.24,2.99,2.59,5.99,4.33,8.71,2.83,4.42,8.77,5.95,13.73,3.39,3.3-1.7,5.34-4.57,6.71-7.92,1.72-4.2,3.34-8.45,4.98-12.68,7.75-20.03,15.63-40.01,23.17-60.12,2.72-7.26.17-13.11-6.64-16.33-6.12-2.9-13.94-1.44-17.04,6.5-2.53,6.49-5.05,12.98-7.57,19.47-2.79,7.19-5.58,14.39-8.42,21.74Z"/>
    <path class="cls-1" d="m412.16,693.12c0-15.64.06-31.28-.08-46.92-.02-2.04-1.1-4.06-1.62-6.11-.45-1.76-.96-3.52-1.15-5.32-.48-4.35-.09-8.63,1.28-12.83.29-.89-.33-2.07-.5-3.11-.37-2.29-1.05-4.58-1.02-6.86.08-6.73,2-12.85,6.42-18.13,3.54-4.23,7.86-7.27,13-9.08,4.14-1.46,8.43-1.52,12.78-1.03,4.77.53,9.08,2.2,12.85,5.05,5.59,4.22,9.61,9.64,11.11,16.59,1.06,4.94.9,9.9-.47,14.82-.27.95-.14,2.11.12,3.1,1.35,5.02,1.32,10.06.21,15.09-.44,2.01-1.27,3.93-1.87,5.9-.15.51-.16,1.07-.16,1.61,0,31.97.05,63.93-.04,95.9-.03,9.21-4.4,16.16-12.22,20.95-3.14,1.92-6.58,2.84-10.23,3.3-6.95.87-13.3-.74-18.83-4.84-4.91-3.65-7.99-8.69-9.03-14.81-.34-2-.55-4.04-.55-6.07-.04-15.73-.02-31.46-.02-47.2Zm38.29-7.42c0-2.61.02-5.21,0-7.82-.08-10.46-.11-20.91-.31-31.36-.06-3.26-2.21-6.74-5.99-8.16-2.67-1.01-5.36-1.33-8.22-1.11-4.4.35-7.56,2.42-9.64,6.26-1.19,2.19-1.48,4.58-1.48,7.01,0,23.01,0,46.01,0,69.02,0,1.09.11,2.18.12,3.28.07,6.07,5.05,11.84,12.36,11.62.99-.03,1.97-.19,2.95-.26,2.32-.17,4.28-1.27,5.96-2.69,3.16-2.68,4.33-6.23,4.3-10.37-.09-11.8-.03-23.6-.03-35.4Zm2.74-73.79c.53-8.43-7.24-15.47-14.7-15.84-10.1-.51-16.89,7.8-16.8,15.88.1,8.78,7.21,15.29,14.73,15.76,9.8.61,17.43-8.07,16.77-15.8Z"/>
    <path class="cls-1" d="m390.07,675.69c0,22,.05,44-.04,66-.02,5.72-1.88,10.87-5.63,15.35-4.12,4.91-9.29,7.94-15.54,8.91-7.24,1.12-14.11-.19-20.03-4.67-5.16-3.91-8.43-9.13-9.25-15.68-.23-1.84-.41-3.69-.41-5.54-.02-42.99-.02-85.99-.02-128.98,0-4.49.69-8.83,2.9-12.8,3.55-6.37,8.82-10.54,16.03-12.02,2.18-.45,4.43-.84,6.64-.8,6.22.12,12.15,1.48,17.06,5.58,3.89,3.24,6.42,7.44,7.42,12.42.5,2.5.82,5.07.83,7.61.06,21.54.04,43.08.04,64.63Zm-12.62-9.57c0-8.87.04-17.74,0-26.61-.05-10.54-.07-21.08-.32-31.62-.09-3.86-2.46-7.45-6.43-8.75-2.52-.82-5.07-1.17-7.75-.88-2.03.22-3.98.59-5.64,1.72-3.79,2.59-5.52,6.27-5.51,10.85.06,37.62.08,75.25.17,112.87,0,3.07,1.48,5.7,3.74,7.73,3.62,3.25,7.93,3.53,12.47,2.57,5.45-1.15,9.3-6.44,9.29-12.19-.02-18.56,0-37.13,0-55.69Z"/>
    <path class="cls-1" d="m745.35,708.85c0-10.33.1-20.67-.03-31-.13-10.02,2.38-19.29,7.43-27.87,3.05-5.18,7.15-9.52,11.71-13.44,5.44-4.67,11.61-8.04,18.5-9.96,3.15-.88,6.41-1.48,9.66-1.87,2.87-.35,5.82-.47,8.71-.28,5.56.36,10.53,2.35,14.73,6.14,3.84,3.46,6.51,7.58,7.72,12.64,1.18,4.92,1.04,9.79-.49,14.59-.34,1.08-.38,2-.03,3.08,1.41,4.39,1.56,8.83.79,13.41-.59,3.51-1.75,6.75-3.78,9.54-3.96,5.43-9.44,8.67-16.04,9.97-1.85.36-3.72.58-5.58.84-1.6.22-2.4,1.1-2.4,2.73,0,14.27.06,28.53-.03,42.8-.04,7.42-2.18,14.07-7.82,19.28-3.49,3.21-7.53,5.29-12.17,6.25-5.8,1.21-11.48.69-16.84-1.71-3.35-1.5-6.21-3.8-8.6-6.75-2.75-3.39-4.35-7.2-5.22-11.38-.24-1.14-.22-2.35-.22-3.53-.02-11.16,0-22.31,0-33.47Zm12.63-9.72c0,7.59,0,15.18,0,22.77,0,.59,0,1.19.07,1.77,1.35,10.52,12.39,13.05,19.61,8.99,4.5-2.53,5.95-6.81,5.96-11.67.04-14.68-.04-29.36.04-44.03.03-5.93,3.8-10.64,9.16-12.82,2.85-1.16,5.86-1.33,8.81-1.89,3.23-.62,6.1-1.89,8.04-4.75,2.16-3.18,2.61-6.64,1.97-10.35-.99-5.71-5.63-9.8-11.33-10.08-3.05-.15-6.17.05-9.19.55-7.18,1.19-13.63,4.16-19.11,8.99-9.1,8.02-13.92,18.11-14.02,30.31-.06,7.41-.01,14.81-.01,22.22Z"/>
  </g>
</svg>