<?xml version="1.0" encoding="UTF-8"?>
<svg id="Layer_1" data-name="Layer 1" xmlns="http://www.w3.org/2000/svg" viewBox="0 0 670.16 144.4">
  <defs>
    <style>
      .cls-1 {
        fill: #fff;
      }
    </style>
  </defs>
  <g id="Ahmedia">
    <path class="cls-1" d="m88.9,110.75h40.93v-2.2l-.22-.17c-3.04-2.43-5.92-7.23-8.55-14.26-2.41-6.52-8.69-25.36-18.67-56-2.1-6.38-2.46-11.45-1.08-15.06,1-2.67,2.77-4.35,5.25-5.02l.43-.12v-2.37H37.17v2.37l.43.12c2.48.66,4.25,2.35,5.25,5.02,1.38,3.62,1.01,8.68-1.09,15.06-9.97,30.63-16.25,49.47-18.66,55.99-2.64,7.03-5.51,11.83-8.55,14.26l-.22.17v2.2h40.93c-6.25-2.36-6.44-5.68-6.44-5.68l11.03-15.17c-3.82-.68-6.23-1.68-6.23-2.79,0-2.06,8.26-3.72,18.45-3.72s18.45,1.67,18.45,3.72c0,1.11-2.41,2.11-6.23,2.79l11.03,15.17s-.18,3.32-6.44,5.68Zm-26.32-45.22l8.64-27.19h1.72l8.64,27.19h-19Z"/>
    <g>
      <path class="cls-1" d="m124.04,18.56h-2.99v6.28h1.66v-1.95h.58l1.49,1.95h1.78v-.36l-1.56-1.92c2.27-.51,1.81-4-.96-4Zm0,2.92h-1.33v-1.44h1.33c.98,0,.98,1.44,0,1.44Z"/>
      <path class="cls-1" d="m123.51,15.47c-3.95,0-6.18,2.86-6.18,6.24s2.22,6.24,6.18,6.24,6.19-2.86,6.19-6.24-2.22-6.24-6.19-6.24Zm0,10.86c-2.77,0-4.34-2.04-4.36-4.62.02-2.58,1.59-4.62,4.36-4.62s4.36,2.04,4.36,4.62-1.57,4.62-4.36,4.62Z"/>
    </g>
  </g>
  <g id="Delivery">
    <path class="cls-1" d="m158.25,23.28c.2-.76.39-1.53.62-2.28.61-1.97,1.72-3.63,3.12-5.16,1.89-2.05,4.14-3.44,6.83-4.09.9-.22,1.85-.36,2.77-.36,4.72-.04,9.44-.03,14.17,0,1.95,0,3.9,0,5.84.16,4.77.4,9.4,1.39,13.85,3.22,3.73,1.54,7.16,3.58,10.27,6.12,1.93,1.57,3.76,3.3,5.44,5.13,2.39,2.6,4.44,5.47,6.1,8.61,2.08,3.94,3.58,8.08,4.36,12.46.25,1.4.36,2.84.5,4.26.13,1.36.29,2.72.29,4.07,0,1.54-.19,3.07-.26,4.61-.04.88-.02,1.76,0,2.63,0,.32.11.63.13.95.06.89.18,1.79.14,2.68-.1,2.05-.28,4.1-.44,6.15-.2,2.64-.74,5.21-1.52,7.73-1.64,5.37-4.26,10.21-7.85,14.53-4.16,5-9.03,9.09-14.88,11.97-3.44,1.69-7.06,2.83-10.81,3.58-3.6.72-7.25.96-10.89.73-1.92-.12-3.82-.71-5.48-1.79-.46-.29-.86-.36-1.35-.05-2.08,1.29-4.35,1.85-6.81,1.91-2.51.06-4.88-.43-7.07-1.57-2.04-1.06-3.69-2.6-4.93-4.58-1.03-1.63-1.64-3.39-1.96-5.27-.01-.08-.09-.15-.14-.22,0-25.37,0-50.75,0-76.12Zm21.03,9.12c2.21,0,4.29-.05,6.37.01,2.06.06,4.12.19,6.17.37,3.26.28,6.24,1.42,8.95,3.2,6.5,4.29,10.03,10.36,10.5,18.12.13,2.15.04,4.36-.34,6.47-1.32,7.37-5.49,12.77-12.02,16.31-3.59,1.95-7.52,2.64-11.59,2.61-1.7-.01-3.19.62-4.39,1.79-2.09,2.05-2.45,4.61-1.84,7.34.65,2.91,3.2,4.91,6.17,4.86,2.01-.03,4.03-.12,6.03-.3,4.9-.45,9.44-2.07,13.69-4.51,2.53-1.45,4.83-3.26,6.94-5.26,1.45-1.38,2.79-2.9,4.02-4.48,2.01-2.58,3.63-5.41,4.86-8.46,1.47-3.63,2.19-7.42,2.51-11.29.13-1.5.08-3.02,0-4.52-.1-1.98-.18-3.97-.49-5.92-.72-4.63-2.42-8.91-4.89-12.89-2.32-3.74-5.25-6.94-8.68-9.69-2.46-1.96-5.13-3.59-8.02-4.83-4.76-2.05-9.77-2.97-14.92-3.03-5.69-.07-11.38.07-17.07.12-2.92.03-6.08,3.58-6.08,6.42.03,20.8,0,41.6.04,62.39,0,2.27,1.11,4.07,3.05,5.34,1.67,1.09,3.53,1.03,5.36.86,1.59-.15,2.93-1,3.96-2.18,1.29-1.48,1.69-3.3,1.69-5.23,0-17.53,0-35.07,0-52.6,0-.32,0-.64,0-1.06Zm6.98,17.42v22.79c.46-.05.88-.11,1.29-.14.45-.03.9-.02,1.35-.05.74-.05,1.5-.04,2.22-.19,5.72-1.19,9.78-4.45,12.12-9.82.33-.76.49-1.5.08-2.28-.49-.95-.88-1.97-1.46-2.87-3.66-5.64-9.08-7.61-15.59-7.44Z"/>
    <path class="cls-1" d="m655.81,75.68c0,9.5.04,18.99-.02,28.49-.03,4.71-.9,9.28-3.02,13.52-1.05,2.1-2.41,4-3.92,5.82-2.3,2.75-4.98,5-8.08,6.78-2.37,1.36-4.91,2.27-7.56,2.92-2.91.71-5.86.87-8.81.66-1.47-.1-2.94-.61-4.36-1.08-2.2-.73-3.92-2.23-5.37-3.96-1.48-1.76-2.43-3.84-2.72-6.16-.31-2.55-.27-5.06.52-7.55.19-.61-.3-1.4-.36-2.12-.14-1.58-.27-3.16-.29-4.75,0-.67-.24-1.02-.79-1.32-2.24-1.22-4.25-2.78-6.01-4.6-3.76-3.9-6.32-8.48-7.55-13.77-.52-2.24-.77-4.51-.76-6.82.02-12.06-.02-24.12.03-36.17.01-2.7.98-5.17,2.61-7.33,2.06-2.74,4.83-4.49,8.18-5.07,1.71-.3,3.51-.1,5.27-.07,1.92.04,3.68.69,5.35,1.59,1.92,1.04,3.44,2.49,4.55,4.38,1.02,1.75,1.69,3.59,1.77,5.64.05,1.24.21,2.48.21,3.72.02,7.41.01,14.82,0,22.23,0,.71.18,1.28.91,1.54.67.24,1.59.09,1.88-.49.25-.51.35-1.14.36-1.72.02-7.86,0-15.73.02-23.59.01-4.32,1.63-7.88,5.07-10.58,2.42-1.9,5.14-2.84,8.21-2.9,2.47-.05,4.87.28,7.09,1.39,1.63.81,3.06,1.88,4.26,3.32,1.62,1.95,2.71,4.1,3.09,6.6.15.98.23,1.98.23,2.97.02,9.5.01,18.99.01,28.49Zm-21.1,16.13c0,.72,0,1.37,0,2.01.01,1.51-.26,2.97-1.14,4.2-.68.94-1.42,1.89-2.31,2.61-1.07.88-2.33,1.52-3.78,1.62-1.16.08-2.32.13-3.46.31-1.61.26-2.9,1.09-3.9,2.4-1.18,1.54-1.43,3.28-1.39,5.15.06,2.67,1.79,5.21,4.44,5.99,2.31.68,4.71.44,7.04.11,2.67-.38,5.23-1.27,7.57-2.68,3.8-2.29,6.75-5.37,8.76-9.33,1.71-3.36,2.35-6.99,2.35-10.7,0-15.86-.08-31.73-.13-47.59,0-2.08-1.07-3.66-2.67-4.82-1.73-1.25-3.73-1.43-5.83-1.11-3.23.5-5.45,3.46-5.44,6.48.02,7.89.02,15.78,0,23.66,0,1.65-.18,3.31-1.06,4.75-2.18,3.56-5.43,4.97-9.57,4.09-3.76-.79-6.41-4.23-6.4-8.04.02-6.08.03-12.16,0-18.24-.01-2.6-.12-5.2-.22-7.79-.07-1.87-1.64-3.82-3.42-4.46-1.74-.62-3.5-.79-5.3-.44-2.95.57-5.08,3.1-5.11,5.93-.08,8.29-.05,16.58,0,24.87,0,1.63.16,3.27.45,4.88.71,3.94,2.45,7.42,5.14,10.38,2.15,2.37,4.68,4.27,7.67,5.49,2.47,1.01,5,1.68,7.69,1.66,1.13-.01,2.27.09,3.39-.02,1.44-.14,2.86-.41,4.28-.69.79-.15,1.55-.44,2.41-.69Z"/>
    <path class="cls-1" d="m521.45,77.37c1.16,1.49,2.09,3.01,2.55,4.78.55,2.06.76,4.15.37,6.26-.19,1.03-.48,2.04-.71,3.06-.04.16-.04.36.01.5.9,2.34,1,4.75.71,7.22-.29,2.47-1.17,4.65-2.7,6.6-2,2.55-4.55,4.21-7.72,4.9-.88.19-1.8.29-2.71.3-3.79.03-7.59.02-11.38.01-3.42,0-6.74-.63-9.97-1.73-3.35-1.14-6.49-2.71-9.22-4.99-1.46-1.22-2.95-2.41-4.24-3.79-3.03-3.25-5.42-6.92-6.9-11.14-.83-2.38-1.55-4.8-1.7-7.33-.14-2.36-.24-4.72-.29-7.09-.02-.75.25-1.51.27-2.26.02-.96-.09-1.93-.13-2.9-.06-1.22-.14-2.44-.15-3.66-.04-5.71,1.32-11.09,4.01-16.11,1.18-2.2,2.59-4.24,4.35-6.04,1.07-1.1,2.09-2.26,3.25-3.25,1.79-1.53,3.72-2.88,5.82-3.98,2.88-1.52,5.92-2.52,9.09-3.21,3.06-.66,6.16-.75,9.24-.56,5.67.33,10.93,2.05,15.85,4.91,2.21,1.29,4.32,2.7,6.1,4.53,1.97,2.03,3.51,4.35,4.06,7.18.53,2.75.54,5.49-.51,8.16-.09.22-.06.55.03.77.81,2.05.94,4.19.77,6.34-.3,3.89-2.18,6.95-5.17,9.42-1.09.9-1.99,2.04-3.02,3.11Zm-17.52-23.35c.05.12.11.23.16.35-.2.14-.43.26-.6.43-2.43,2.4-4.87,4.79-7.25,7.23-1.55,1.59-2.46,3.47-2,5.78.57,2.87,2.22,4.9,4.98,5.83,2.68.9,5.04.07,7.03-1.85,2.59-2.5,5.15-5.03,7.72-7.56,1.21-1.2,2.39-2.43,3.61-3.63,1.21-1.19,2.48-2.32,3.66-3.53,1.75-1.79,2.13-5.42.64-7.42-.99-1.33-2.25-2.48-3.46-3.62-1.92-1.81-4.21-3.04-6.61-4.14-2.77-1.27-5.69-1.79-8.66-2.02-2.55-.19-5.13-.05-7.65.45-6.13,1.21-11.14,4.32-15.11,9.1-3.57,4.31-5.44,9.35-5.84,14.88-.17,2.24,0,4.54.29,6.78.68,5.39,2.97,10.1,6.65,14.08,2.58,2.79,5.61,5,9.15,6.45,2.42.99,4.92,1.75,7.53,1.85,3.79.15,7.58.1,11.37.09.99,0,1.99-.07,2.96-.23,1.56-.26,2.81-1.11,3.75-2.37,1.14-1.53,1.48-3.27,1.37-5.15-.09-1.63-.64-3.06-1.75-4.26-1.45-1.55-3.32-2.12-5.37-2.14-3.14-.03-6.28,0-9.42,0-4.17,0-7.55-1.73-9.99-5.04-1.99-2.7-2.9-5.8-2.43-9.23.46-3.41,1.89-6.23,4.61-8.41,2.2-1.76,4.66-2.7,7.48-2.72,1.07,0,2.13,0,3.2,0Z"/>
    <path class="cls-1" d="m298.37,77.38c1.35,1.61,2.3,3.42,2.75,5.44.33,1.48.67,2.99.34,4.54-.29,1.38-.56,2.78-.75,4.18-.06.46.21.96.28,1.45.21,1.4.6,2.8.56,4.19-.14,5.83-2.75,10.18-8.09,12.72-1.53.73-3.2,1.1-4.91,1.11-3.94.01-7.89.03-11.83,0-4.14-.03-8.08-.99-11.92-2.52-2.56-1.02-4.95-2.36-7.05-4.08-1.99-1.62-3.83-3.47-5.54-5.39-3.71-4.16-5.88-9.09-7.02-14.53-.74-3.53-.88-7.1-.52-10.63.3-2.87-.29-5.67-.17-8.52.19-4.26.91-8.37,2.56-12.31,1.3-3.09,3.03-5.9,5.23-8.44,2.7-3.1,5.75-5.74,9.38-7.71,2.82-1.53,5.83-2.49,8.94-3.24,3.17-.76,6.35-.83,9.54-.68,3.78.18,7.42,1.07,10.94,2.5,2.79,1.13,5.43,2.53,7.89,4.26,3.19,2.25,5.82,5.01,6.97,8.85.42,1.42.7,2.94.69,4.41-.01,1.44-.42,2.89-.77,4.31-.14.57-.14,1.04,0,1.61.35,1.5.8,3.02.79,4.54-.03,4.45-1.86,8.08-5.37,10.9-1.08.87-1.94,2-2.93,3.05Zm-17.54-23.35c.06.12.12.24.17.35-.2.14-.43.25-.6.42-2.51,2.5-5.02,4.99-7.51,7.51-1.54,1.55-2.06,3.51-1.71,5.58.56,3.27,3.57,6.39,7.36,6.06,1.6-.14,2.97-.63,4.11-1.69,1.87-1.74,3.68-3.54,5.5-5.33,2.79-2.73,5.59-5.47,8.36-8.22.77-.76,1.61-1.49,2.19-2.38,1.23-1.9,1.42-3.96.42-6.05-.68-1.42-1.73-2.52-2.91-3.57-1.96-1.74-4.08-3.18-6.44-4.33-3.38-1.65-6.96-2.48-10.69-2.51-2.02-.01-4.05.23-6.07.43-2.25.22-4.37.96-6.41,1.9-3.86,1.79-7.11,4.37-9.71,7.75-1.64,2.14-2.98,4.44-3.87,7-.88,2.52-1.38,5.09-1.5,7.76-.14,3.04-.03,6.06.7,9.01.89,3.59,2.44,6.88,4.8,9.76,5.34,6.54,12.18,10.03,20.68,10.09,2.61.02,5.22,0,7.84,0,1.03,0,2.07.08,3.08-.04,5.16-.61,7.09-5.62,5.5-9.84-1.12-2.95-3.3-4.19-6.71-4.27-3.24-.08-6.48-.01-9.72-.02-.63,0-1.27.03-1.87-.09-4.13-.88-7.15-3.26-9.03-6.99-1.58-3.13-1.63-6.44-.65-9.76.81-2.75,2.61-4.81,4.91-6.44,2.06-1.46,4.35-2.18,6.89-2.11.96.03,1.93,0,2.9,0Z"/>
    <path class="cls-1" d="m426.72,47.52c.61-1.49,1.1-2.9,1.74-4.23.93-1.92,1.82-3.89,3.01-5.65,1.72-2.52,4.26-3.97,7.27-4.48,5.38-.91,10.08.43,13.83,4.51,1.81,1.97,2.96,4.26,3.25,7,.25,2.42.11,4.76-.66,7.07-.06.19-.06.44,0,.63,1.21,3.67,1.03,7.27-.38,10.87-2.49,6.33-4.9,12.7-7.35,19.04-2.15,5.55-4.31,11.09-6.47,16.63-1,2.56-1.87,5.17-3.48,7.45-2.03,2.88-4.69,4.81-8.19,5.37-3.53.57-6.95.22-9.97-1.93-2.02-1.44-3.6-3.32-4.61-5.56-1.23-2.73-2.27-5.55-3.37-8.34-1.32-3.34-2.62-6.7-3.92-10.05-1.31-3.39-2.61-6.79-3.92-10.19-1.35-3.51-2.76-7-4.06-10.53-.74-2.02-1.54-4.07-1.9-6.18-.35-2.03-.15-4.15.66-6.12.21-.52.21-.98.01-1.5-.78-2.05-.97-4.23-.7-6.36.32-2.45,1.17-4.75,2.82-6.73,1.8-2.15,3.96-3.73,6.6-4.61,3.57-1.18,7.14-1.04,10.58.45,2.31,1,4.02,2.78,5.31,4.95,1.49,2.5,2.54,5.2,3.59,7.89.07.17.17.32.31.59Zm.04,19.2c-.1-.2-.18-.33-.23-.46-2.81-7.24-5.62-14.48-8.44-21.72-.56-1.44-1.28-2.77-2.67-3.64-1.63-1.01-3.36-1.27-5.22-.9-2.34.47-4.13,1.67-5.21,3.84-1.04,2.1-.7,4.2.1,6.27,1.61,4.17,3.27,8.31,4.87,12.48,1.89,4.9,3.73,9.81,5.62,14.71,1.27,3.3,2.55,6.6,3.91,9.87.68,1.64,1.42,3.29,2.38,4.78,1.55,2.43,4.82,3.27,7.54,1.86,1.81-.93,2.93-2.51,3.68-4.35.94-2.31,1.83-4.64,2.73-6.97,4.26-11,8.59-21.97,12.72-33.02,1.49-3.99.09-7.2-3.65-8.97-3.36-1.59-7.66-.79-9.36,3.57-1.39,3.56-2.77,7.13-4.16,10.69-1.53,3.95-3.06,7.9-4.63,11.94Z"/>
    <path class="cls-1" d="m358.79,70.68c0-8.59.03-17.18-.04-25.77,0-1.12-.6-2.23-.89-3.36-.24-.97-.52-1.94-.63-2.92-.26-2.39-.05-4.74.7-7.05.16-.49-.18-1.13-.27-1.71-.2-1.26-.58-2.51-.56-3.77.04-3.69,1.1-7.06,3.52-9.95,1.94-2.32,4.31-3.99,7.14-4.99,2.27-.8,4.63-.83,7.02-.57,2.62.29,4.99,1.21,7.06,2.77,3.07,2.32,5.28,5.29,6.1,9.11.58,2.71.49,5.44-.26,8.14-.15.52-.08,1.16.07,1.7.74,2.76.72,5.53.12,8.29-.24,1.1-.7,2.16-1.02,3.24-.08.28-.09.59-.09.88,0,17.56.03,35.11-.02,52.67-.02,5.06-2.42,8.87-6.71,11.5-1.72,1.06-3.61,1.56-5.62,1.81-3.82.48-7.3-.4-10.34-2.66-2.7-2-4.39-4.77-4.96-8.13-.19-1.1-.3-2.22-.3-3.33-.02-8.64-.01-17.28-.01-25.92Zm21.03-4.07c0-1.43,0-2.86,0-4.3-.05-5.74-.06-11.48-.17-17.23-.04-1.79-1.21-3.7-3.29-4.48-1.47-.55-2.95-.73-4.51-.61-2.42.19-4.15,1.33-5.3,3.44-.65,1.2-.81,2.51-.81,3.85,0,12.64,0,25.27,0,37.91,0,.6.06,1.2.07,1.8.04,3.33,2.78,6.5,6.79,6.38.54-.02,1.08-.1,1.62-.14,1.27-.09,2.35-.7,3.27-1.48,1.73-1.47,2.38-3.42,2.36-5.7-.05-6.48-.02-12.96-.02-19.44Zm1.51-40.53c.29-4.63-3.98-8.49-8.07-8.7-5.55-.28-9.27,4.29-9.23,8.72.05,4.82,3.96,8.4,8.09,8.66,5.38.34,9.57-4.43,9.21-8.68Z"/>
    <path class="cls-1" d="m346.66,61.11c0,12.08.03,24.16-.02,36.25-.01,3.14-1.03,5.97-3.09,8.43-2.26,2.7-5.1,4.36-8.53,4.89-3.98.61-7.75-.1-11-2.57-2.83-2.15-4.63-5.01-5.08-8.61-.13-1.01-.23-2.03-.23-3.04-.01-23.61,0-47.22,0-70.84,0-2.46.38-4.85,1.59-7.03,1.95-3.5,4.84-5.79,8.8-6.6,1.2-.25,2.44-.46,3.65-.44,3.42.07,6.67.81,9.37,3.06,2.14,1.78,3.53,4.09,4.07,6.82.27,1.37.45,2.78.45,4.18.03,11.83.02,23.66.02,35.49Zm-6.93-5.26c0-4.87.02-9.74,0-14.62-.03-5.79-.04-11.58-.17-17.37-.05-2.12-1.35-4.09-3.53-4.81-1.38-.45-2.78-.64-4.26-.49-1.11.12-2.18.32-3.1.94-2.08,1.42-3.03,3.45-3.03,5.96.03,20.66.04,41.33.09,61.99,0,1.69.81,3.13,2.05,4.25,1.99,1.79,4.35,1.94,6.85,1.41,2.99-.63,5.11-3.54,5.1-6.69-.01-10.2,0-20.39,0-30.59Z"/>
    <path class="cls-1" d="m541.79,79.32c0-5.68.06-11.35-.02-17.03-.07-5.5,1.3-10.6,4.08-15.3,1.68-2.85,3.93-5.23,6.43-7.38,2.99-2.57,6.38-4.42,10.16-5.47,1.73-.48,3.52-.81,5.31-1.03,1.58-.19,3.2-.26,4.78-.15,3.06.2,5.78,1.29,8.09,3.37,2.11,1.9,3.58,4.16,4.24,6.94.65,2.7.57,5.38-.27,8.01-.19.6-.21,1.1-.02,1.69.77,2.41.86,4.85.44,7.36-.32,1.93-.96,3.71-2.08,5.24-2.17,2.98-5.19,4.76-8.81,5.47-1.01.2-2.04.32-3.07.46-.88.12-1.32.61-1.32,1.5,0,7.84.03,15.67-.01,23.51-.02,4.07-1.2,7.73-4.3,10.59-1.92,1.77-4.14,2.9-6.68,3.43-3.18.66-6.3.38-9.25-.94-1.84-.83-3.41-2.09-4.72-3.71-1.51-1.86-2.39-3.95-2.87-6.25-.13-.63-.12-1.29-.12-1.94,0-6.13,0-12.26,0-18.38Zm6.94-5.34c0,4.17,0,8.34,0,12.51,0,.32,0,.65.04.97.74,5.78,6.81,7.17,10.77,4.94,2.47-1.39,3.27-3.74,3.27-6.41.02-8.06-.02-16.12.02-24.18.02-3.26,2.08-5.84,5.03-7.04,1.56-.64,3.22-.73,4.84-1.04,1.77-.34,3.35-1.04,4.42-2.61,1.19-1.75,1.43-3.65,1.08-5.69-.54-3.14-3.09-5.38-6.22-5.53-1.68-.08-3.39.03-5.05.3-3.94.66-7.49,2.29-10.5,4.94-5,4.41-7.64,9.94-7.7,16.64-.03,4.07,0,8.14,0,12.2Z"/>
  </g>
</svg>