<?xml version="1.0" encoding="UTF-8"?>
<svg id="Layer_1" data-name="Layer 1" xmlns="http://www.w3.org/2000/svg" viewBox="0 0 755.34 117.22">
  <defs>
    <style>
      .cls-1 {
        fill: #fff;
      }
    </style>
  </defs>
  <g>
    <path class="cls-1" d="m214.98,13.45c0-1.62.46-3.21,1.31-4.59,2.99-4.85,7.3-7.52,13.76-7.19,7.25.38,14.56-.46,21.77.77,8.48,1.45,15.61,5.58,21.56,11.75,4.66,4.84,7.9,10.57,9.97,16.92,1.16,3.56,1.63,7.34,1.59,11.04-.07,7.46.91,15.12-1.18,22.34-2.29,7.92-6.49,15.01-12.88,20.53-8.06,6.96-17.42,10.42-28.08,10.34-1.62-.01-3.18-.16-4.63-.91-1.5-.77-3.12-.99-4.62-.31-5.51,2.5-11.1,1.24-14.93-2.83-2.41-2.56-3.64-6.02-3.64-9.54V13.45Zm6.77,30.06c0,9.57-.07,19.14.03,28.7.06,5.54,4.8,8.3,9.72,5.79,2.95-1.5,3.47-4.19,3.46-7.19-.04-15.49-.04-30.98,0-46.47,0-1-.65-2.67,1.11-2.71,4.2-.09,8.62-.72,12.55.33,8.9,2.38,14.76,8.31,16.07,17.76,1.26,9.08-1.35,16.75-9.2,22.14-3.43,2.36-7.12,3.54-11.38,3.63-5.66.11-7.8,2.48-7.5,7.26.29,4.53,3,6.55,8.49,6.22,1.35-.08,2.69-.44,4.03-.64,12.6-1.94,21.78-9,26.41-20.49,5.76-14.28,3.61-27.99-7.29-39.49-5.12-5.41-11.58-9.02-19.06-9.71-6.55-.6-13.19-.31-19.79-.31-5.78,0-7.64,1.95-7.64,7.86,0,9.11,0,18.22,0,27.34Zm19.86,5s0,0-.01,0c0,2.85.04,5.69-.02,8.54-.03,1.44.5,2.09,2,1.99,4.87-.31,8.51-2.51,11.9-6.14,1.2-1.29,2.79-2.99,2.33-5.08-1.11-4.99-8.57-10.05-13.98-9.92-1.89.04-2.3.74-2.24,2.42.1,2.73.03,5.46.03,8.19Z"/>
    <path class="cls-1" d="m533.56,58.79c.71-4.48.37-8.3.43-12.09.06-3.53.12-7.06,0-10.59-.34-10.35,9.93-17.98,19.8-13.08,4.44,2.2,6.75,6.16,6.78,11.15.08,11.39.23,22.78-.02,34.16-.27,12.68-8.11,21.55-18.61,25.21-7.21,2.51-14.71,1.87-21.73-1.55-.93-.45-1.31-.34-2.27.06-14.75,6.16-29.95,2.34-38.02-12.66-2.06-3.83-2.5-8.19-2.55-12.49-.1-10.59-.05-21.18-.03-31.77.01-5.29,1.67-9.79,6.76-12.21,5.84-2.77,11.29-1.67,15.93,2.6,1.96,1.81,3.23,4.31,3.22,7.24-.04,7.51-.02,15.03.01,22.55,0,1.38-.53,3.22,1.93,3.1,2.37-.12,1.41-1.99,1.43-3.11.09-6.72.34-13.45-.05-20.15-.3-5.22,3.73-11.37,9.64-13.23,4.5-1.42,11.68.58,14.62,4.7,1.06,1.48,1.83,3.32,1.84,5.38.03,8.41.18,16.82.3,25.23,0,.28.2.56.58,1.53Zm20.34-11.3s-.04,0-.06,0c0-4.67-.07-9.34.04-14,.04-1.56-.63-2.53-1.68-3.47-2.13-1.9-4.51-2.74-7.18-1.42-2.67,1.32-4.33,3.31-4.26,6.63.15,7.17-.16,14.36.13,21.52.16,3.91-1.76,6.2-4.68,7.9-2.13,1.24-4.63,1.06-6.82-.03-2.03-1.01-3.03-2.63-2.97-5.2.2-8.31.09-16.62.07-24.94,0-3.68-2.72-6.46-6.32-6.54-3.74-.08-6.67,2.73-6.68,6.47-.02,7.4.02,14.8,0,22.21-.01,4.72-3.72,8.66-8.08,8.66-5.03,0-8.26-3.31-8.27-8.53-.02-7.52.03-15.03-.05-22.55-.03-3.27-3.35-6.29-6.66-6.29-3.75,0-6.3,2.54-6.3,6.36-.02,8.65,0,17.31,0,25.96,0,.9-.05,1.86.2,2.71,4.35,14.75,20.17,19.26,31.98,12.36,2.02-1.18,3.47-1.22,5.4,0,6.15,3.91,12.87,4.18,19.41,1.6,8.31-3.28,12.74-9.67,12.79-18.81.02-3.53,0-7.06,0-10.59Z"/>
    <path class="cls-1" d="m434.52,94.86c-.62,2.25-.27,4.54-.28,6.79-.03,6.2-3.07,10.9-8.51,12.94-4.5,1.69-9.58,1.35-13.7-2.31-3.1-2.75-4.31-6.31-4.32-10.22-.08-16.63-.22-33.26.06-49.89.24-14.06,8.73-24.68,21.47-28.77,16.48-5.29,33.33,2.15,40.1,18.83,1.2,2.96,2.07,6.21,1.79,9.6-.58,6.87.91,13.79-1.19,20.67-2.2,7.19-6.18,12.9-12.25,17.15-6.96,4.88-14.67,6.69-23.17,5.21Zm-20.12-23.68s.02,0,.03,0c0,7.28.04,14.57-.03,21.85-.02,1.6.42,2.86,1.49,4,2.29,2.42,5.27,2.34,7.9,1.41,2.38-.84,3.65-3.14,3.65-5.9-.02-12.75.03-25.5-.05-38.24-.01-2.46.46-4.61,1.75-6.76,2.9-4.84,8.38-6.78,14.48-4.86,4.93,1.55,8.33,6.78,7.83,12.05-.52,5.51-4.99,10.01-10.41,10.62-2.46.27-5.08.38-6.76,2.62-1.69,2.25-2.14,4.66-.78,7.32,1.74,3.4,4.75,4.16,8.05,3.65,10.48-1.61,17.84-6.7,21.95-17.2,4.73-12.09-3.59-29.01-17.42-32.55-15.06-3.86-32.63,7.26-31.72,24.24.32,5.9.05,11.83.05,17.75Z"/>
    <path class="cls-1" d="m755.3,62.72c0,7.86-.14,15.72.03,23.58.27,12.48-4.5,22.06-15.74,27.91-5.84,3.04-12.27,3.8-18.29,1.3-6.73-2.8-8.22-8.99-7.55-15.33.38-3.62,1.17-7.55-3.25-10.55-7.54-5.11-10.86-13.05-11.09-22.02-.27-10.25.23-20.51-.15-30.75-.4-10.55,8.67-18.07,19.65-13.89,3.72,1.42,6.97,6.82,7.02,12.23.07,6.83,0,13.67.05,20.5,0,1.1-.68,2.87,1.38,2.81,1.96-.06,1.32-1.79,1.33-2.91.04-6.49-.09-12.99.03-19.48.08-4.38,1.29-8.24,4.99-11.23,4.49-3.62,9.34-4.02,14.23-1.8,4.74,2.15,7.24,6.36,7.32,11.61.13,9.34.04,18.68.04,28.02h.02Zm-6.69-4.51c.06,0,.11,0,.17,0,0-7.52.09-15.04-.03-22.55-.08-4.6-2.88-7.45-6.79-7.33-4.08.13-6.47,2.88-6.48,7.54-.02,6.83-.09,13.67.03,20.5.09,5.39-3.76,9.55-8.5,9.01-4.44-.5-7.67-3.73-7.72-8.98-.07-7.06.04-14.13-.05-21.19-.06-4.64-2.35-6.95-6.55-6.87-3.98.07-6.6,2.76-6.64,7.02-.06,6.49,0,12.99,0,19.48,0,3.18.38,6.24,1.15,9.39,2.43,9.93,14.17,16.15,23.68,14.11,1.45-.31,3.35-1.77,4.35-.1.92,1.54-.25,3.5-1,5.11-.52,1.11-1.55,1.85-2.62,2.58-2.11,1.44-4.55,1.29-6.83,1.87-2.7.69-4.11,2.31-4.35,5.24-.27,3.35.81,6.15,3.93,6.92,2.76.69,6.03.64,8.78-.12,8.8-2.44,15.11-9.54,15.43-19.09.26-7.51.05-15.03.05-22.55Z"/>
    <path class="cls-1" d="m693.05,62.61c0,8.76.02,17.53,0,26.29-.04,14.2-8.55,23.68-20.9,27.4-7.74,2.33-14.6.16-18.69-5.76-1.78-2.58-2.38-5.63-1.57-8.72.85-3.24-.32-6.31-.5-9.45-.05-.87-.96-1.42-1.75-1.94-7.68-5.09-11.85-12.15-11.86-21.48-.01-11.84.24-23.68-.06-35.51-.17-6.76,7.68-12.43,14.13-11.69,7.63.88,12.3,6.7,11.97,13.7-.33,6.81-.08,13.66-.05,20.49,0,1.16-.39,2.69,1.68,2.58,1.87-.09,1.73-1.43,1.73-2.69,0-7.4.25-14.81-.04-22.19-.3-7.72,8.89-13.29,15.35-11.58,7.24,1.91,10.46,5.88,10.54,13.59.1,8.99.02,17.99.02,26.98Zm-6.71-3.95h.01c0-7.85.02-15.71,0-23.56-.01-4.29-2.26-6.68-6.26-6.77-4.01-.09-6.74,2.63-6.76,6.81-.02,7.4,0,14.8-.02,22.19,0,1.11.12,2.18-.48,3.3-2,3.78-6.04,5.67-10.25,4.59-2.62-.67-5.59-4.86-5.61-8.17-.05-7.4-.02-14.8-.02-22.19,0-4.38-2.14-6.58-6.33-6.53-3.71.04-6.64,2.92-6.65,6.62-.02,7.63.09,15.25-.03,22.88-.2,13.51,13.1,23.67,26.11,20.21,3.11-.83,4,.04,3.16,3.13-.45,1.65-1.51,2.94-2.82,4.08-2.3,2.01-5.18,2.05-7.93,2.55-3.46.63-3.98,3.4-4.15,6.14-.2,3.34,1.78,5.79,4.55,6.22,12.55,1.95,24-8.48,23.53-19.99-.29-7.16-.05-14.34-.05-21.51Z"/>
    <path class="cls-1" d="m630.96,67.21c0,4.67.01,9.34,0,14.01-.04,11.08-10.69,17.39-20.33,12.02-1.42-.79-2.62-1.06-4.05-.17-6.03,3.73-12.39,2.35-18.36.36-9.73-3.25-16.18-10.25-19.5-19.95-.86-2.53-1.4-5.31-1.39-7.97.01-7.11-1.14-14.43,1.03-21.27,2.7-8.54,8.1-15.24,16.47-19.21,7.71-3.66,15.77-4.3,23.75-1.87,7.45,2.27,13.47,6.86,17.66,13.75,3.79,6.24,4.83,12.98,4.71,20.07-.06,3.42-.01,6.83,0,10.25Zm-6.69-5.57s-.05,0-.08,0c0-3.41.04-6.83-.01-10.24-.06-4.15-1.71-7.77-3.62-11.37-4.68-8.81-18.81-13.29-28.62-10.73-15.98,4.17-23.02,23.7-14.53,37.66,4.5,7.39,11.26,10.64,19.45,11.77,4.26.59,8.49-1.89,8.87-5.35.53-4.78-2.09-7.93-7.29-7.97-2.7-.02-4.77-.96-6.82-2.37-5.99-4.12-5.78-14.95.31-18.96,4.27-2.81,8.76-2.95,13.12-.66,4.2,2.2,5.99,6.12,6.01,10.81.04,6.03-.05,12.06.07,18.09.08,3.91,2.66,6.43,6.39,6.57,3.51.13,6.63-2.87,6.73-6.67.1-3.52.02-7.05.02-10.58Z"/>
    <path class="cls-1" d="m401.45,58.78c.25,6.26.11,12.43-2.69,18.27-6.37,13.29-20.6,20.5-35.06,17.76-10.95-2.07-18.24-8.57-23.16-18.18-1.73-3.38-2.4-7.18-2.35-10.84.09-6.77-1.08-13.7.6-20.28,2.37-9.24,8.14-16.18,16.77-20.49,7.76-3.88,16.12-4.53,24.1-1.84,12.36,4.16,21.15,14.07,21.77,28.43.1,2.39.01,4.78.01,7.18Zm-56.68-5.32c-.22,15.24,10.9,25.6,25.14,25.46,15.05-.14,25.23-11.04,25.3-25.25.07-14.21-10.59-25.36-25.54-25.27-14.16.08-24.99,10.16-24.89,25.05Z"/>
    <path class="cls-1" d="m291.5,64.9c0-5.46.2-10.93-.04-16.39-.51-11.47,8.35-21.8,18.23-25.2,6.02-2.07,12.68-3.26,18.21,1.84,2.7,2.49,4.53,5.58,4.58,9.47.04,3.21-.67,6.33-.15,9.66.93,5.86-3.15,12.39-11.92,13.8-2.93.47-3.03,1.75-3.01,3.99.09,6.94.04,13.88.03,20.83,0,5.11-3.1,9.5-7.8,11.13-6.29,2.17-11.4.94-15.02-3.16-2.23-2.53-3.3-5.16-3.19-8.56.19-5.8.05-11.61.05-17.41,0,0,.02,0,.03,0Zm34.18-30.11c.23-2.46-1.09-4.31-3.75-5.66-3.61-1.83-6.85-.21-10.19.61-6.09,1.49-12.99,8.85-13.37,14.74-.63,9.75-.71,19.51-.15,29.28.1,1.71.81,3.01,1.96,3.62,2.39,1.28,4.98,2.13,7.69.39,2.41-1.55,3.51-3.57,3.47-6.45-.09-7.16.17-14.33-.11-21.48-.16-4,1.99-6.32,5.39-7.4,1.62-.51,3.26-.94,4.9-1.37,2.97-.79,4.2-2.81,4.16-6.27Z"/>
    <path class="cls-1" d="m357.76,53.55c-.23-6.43,5.23-11.59,11.86-11.7,6.78-.11,12.33,5.37,12.26,12.03-.07,5.99-5.09,11.6-11.92,11.82-7.17.23-12.67-6.68-12.2-12.15Z"/>
  </g>
  <path class="cls-1" d="m170.77,55.71c-.29,0-.58,0-.87.01-1,.05-1.91-.58-2.19-1.54C158.53,22.87,129.57,0,95.28,0S32.04,22.87,22.85,54.18c-.28.97-1.18,1.59-2.19,1.54-.29-.01-.58-.01-.87-.01C8.45,55.71-.67,65.26.04,76.76c.62,9.85,8.64,17.87,18.49,18.48,8.78.55,16.43-4.65,19.55-12.18,1.91-4.61,6.46-7.57,11.46-7.57h91.49c4.98,0,9.55,2.95,11.46,7.57,3.12,7.54,10.77,12.73,19.55,12.18,9.85-.61,17.87-8.63,18.49-18.48.71-11.5-8.41-21.05-19.75-21.05Zm-26.08,8.79H45.87c-5.22,0-9.25-4.27-8.38-8.96,4.68-25.29,28.76-44.55,57.79-44.55s53.11,19.26,57.79,44.55c.87,4.69-3.16,8.96-8.38,8.96Z"/>
</svg>