<?xml version="1.0" encoding="UTF-8"?>
<svg id="Layer_1" data-name="Layer 1" xmlns="http://www.w3.org/2000/svg" viewBox="0 0 960 739.97">
  <g>
    <path d="m0,555.6c0-2.88.81-5.71,2.32-8.16,5.32-8.61,12.96-13.37,24.44-12.77,12.88.67,25.88-.82,38.68,1.37,15.07,2.57,27.73,9.91,38.3,20.87,8.29,8.6,14.04,18.77,17.71,30.06,2.05,6.32,2.89,13.05,2.83,19.6-.12,13.26,1.61,26.87-2.1,39.68-4.07,14.07-11.53,26.67-22.88,36.48-14.32,12.37-30.94,18.51-49.89,18.38-2.88-.02-5.64-.28-8.23-1.61-2.66-1.37-5.54-1.76-8.21-.55-9.79,4.45-19.72,2.2-26.52-5.03C2.18,689.38,0,683.23,0,676.98v-121.38Zm12.03,53.4c0,17-.13,34,.05,50.99.1,9.84,8.53,14.74,17.27,10.29,5.24-2.67,6.16-7.44,6.14-12.78-.07-27.52-.07-55.04-.01-82.55,0-1.77-1.16-4.74,1.96-4.81,7.46-.16,15.31-1.28,22.3.59,15.82,4.24,26.21,14.76,28.54,31.54,2.24,16.13-2.4,29.76-16.35,39.34-6.1,4.19-12.65,6.29-20.23,6.45-10.06.2-13.87,4.41-13.32,12.89.51,8.05,5.32,11.63,15.09,11.05,2.4-.14,4.77-.78,7.16-1.15,22.39-3.44,38.69-16,46.92-36.41,10.23-25.38,6.42-49.72-12.95-70.15-9.1-9.6-20.57-16.03-33.86-17.25-11.64-1.06-23.43-.55-35.15-.56-10.27,0-13.57,3.47-13.58,13.96-.02,16.19,0,32.38,0,48.56Zm35.28,8.89s-.02,0-.02,0c0,5.05.07,10.11-.03,15.16-.05,2.56.88,3.71,3.54,3.54,8.66-.55,15.11-4.46,21.13-10.91,2.14-2.29,4.96-5.31,4.14-9.02-1.97-8.86-15.22-17.86-24.83-17.63-3.35.08-4.09,1.31-3.98,4.3.18,4.85.05,9.7.05,14.56Z" fill="#fff"/>
    <path d="m565.99,636.16c1.26-7.95.66-14.74.77-21.48.1-6.27.2-12.55,0-18.81-.61-18.39,17.64-31.94,35.18-23.23,7.88,3.91,11.99,10.95,12.05,19.82.15,20.23.4,40.47-.04,60.68-.49,22.52-14.41,38.29-33.06,44.79-12.81,4.46-26.14,3.33-38.6-2.75-1.66-.81-2.32-.61-4.04.11-26.2,10.94-53.22,4.17-67.55-22.49-3.66-6.81-4.45-14.56-4.52-22.18-.18-18.81-.09-37.63-.05-56.44.02-9.41,2.96-17.39,12.01-21.69,10.38-4.92,20.06-2.97,28.29,4.62,3.48,3.21,5.74,7.65,5.72,12.86-.07,13.35-.03,26.7.02,40.05,0,2.46-.93,5.73,3.43,5.5,4.2-.22,2.51-3.53,2.54-5.52.16-11.93.6-23.9-.09-35.8-.54-9.28,6.64-20.2,17.13-23.51,7.99-2.52,20.75,1.03,25.98,8.36,1.88,2.64,3.26,5.9,3.27,9.56.06,14.94.32,29.89.53,44.83,0,.5.36,1,1.03,2.72Zm36.13-20.08s-.07,0-.1,0c0-8.29-.13-16.59.07-24.88.07-2.77-1.12-4.5-2.99-6.17-3.78-3.38-8.02-4.86-12.76-2.52-4.75,2.35-7.69,5.88-7.57,11.77.26,12.74-.29,25.51.24,38.23.29,6.94-3.13,11.02-8.32,14.04-3.79,2.21-8.22,1.88-12.12-.06-3.61-1.8-5.38-4.67-5.27-9.23.35-14.76.16-29.54.13-44.31-.01-6.54-4.84-11.48-11.23-11.61-6.64-.14-11.85,4.85-11.86,11.49-.03,13.15.04,26.3,0,39.45-.02,8.38-6.61,15.38-14.35,15.39-8.94,0-14.68-5.88-14.7-15.16-.03-13.35.05-26.71-.08-40.06-.06-5.8-5.95-11.17-11.83-11.17-6.67,0-11.19,4.5-11.2,11.29-.03,15.38-.02,30.75,0,46.13,0,1.61-.1,3.3.35,4.81,7.73,26.2,35.83,34.21,56.82,21.95,3.59-2.1,6.16-2.17,9.59,0,10.93,6.94,22.86,7.42,34.48,2.84,14.77-5.83,22.63-17.19,22.72-33.41.03-6.27,0-12.54,0-18.82Z" fill="#fff"/>
    <path d="m390.04,700.23c-1.1,4-.48,8.06-.49,12.07-.05,11.02-5.45,19.36-15.12,22.99-8,3-17.02,2.4-24.34-4.1-5.51-4.89-7.65-11.21-7.68-18.16-.14-29.55-.39-59.1.11-88.64.42-24.98,15.51-43.84,38.14-51.11,29.28-9.41,59.22,3.82,71.25,33.46,2.14,5.26,3.69,11.04,3.18,17.06-1.02,12.21,1.62,24.51-2.11,36.72-3.91,12.78-10.99,22.91-21.77,30.47-12.36,8.66-26.07,11.89-41.16,9.25Zm-35.74-42.07s.04,0,.05,0c0,12.94.07,25.88-.06,38.82-.03,2.84.74,5.09,2.65,7.1,4.07,4.29,9.36,4.15,14.03,2.51,4.22-1.49,6.48-5.58,6.48-10.48-.03-22.65.05-45.3-.08-67.94-.03-4.38.81-8.19,3.1-12,5.16-8.6,14.89-12.05,25.72-8.64,8.77,2.76,14.8,12.05,13.92,21.41-.93,9.79-8.87,17.79-18.5,18.86-4.37.49-9.02.68-12.01,4.66-3,4-3.8,8.28-1.38,13,3.09,6.04,8.44,7.38,14.3,6.48,18.61-2.87,31.7-11.9,39-30.55,8.4-21.48-6.39-51.54-30.94-57.83-26.75-6.85-57.97,12.9-56.36,43.06.56,10.48.09,21.02.09,31.54Z" fill="#fff"/>
    <path d="m959.92,643.13c0,13.96-.25,27.93.06,41.89.48,22.17-8,39.2-27.97,49.58-10.37,5.4-21.8,6.75-32.5,2.3-11.95-4.97-14.61-15.97-13.42-27.24.68-6.44,2.07-13.42-5.77-18.74-13.4-9.09-19.29-23.18-19.71-39.12-.48-18.2.41-36.45-.27-54.64-.7-18.74,15.41-32.11,34.9-24.68,6.6,2.52,12.38,12.12,12.48,21.73.12,12.14,0,24.29.08,36.43.01,1.95-1.21,5.1,2.46,4.98,3.48-.11,2.35-3.17,2.36-5.16.06-11.54-.16-23.07.05-34.61.14-7.79,2.29-14.64,8.87-19.95,7.98-6.44,16.6-7.15,25.27-3.2,8.41,3.83,12.87,11.3,13,20.63.24,16.59.07,33.19.07,49.79h.03Zm-11.89-8.01c.1,0,.2,0,.29,0,0-13.36.16-26.72-.06-40.07-.14-8.18-5.12-13.23-12.07-13.02-7.25.23-11.49,5.12-11.51,13.39-.03,12.14-.16,24.29.05,36.43.16,9.58-6.69,16.96-15.1,16.01-7.9-.89-13.62-6.62-13.71-15.95-.12-12.55.07-25.1-.08-37.64-.1-8.25-4.18-12.34-11.65-12.2-7.07.13-11.73,4.9-11.8,12.48-.11,11.53.02,23.07,0,34.61,0,5.65.68,11.09,2.05,16.69,4.31,17.64,25.18,28.7,42.07,25.07,2.57-.55,5.95-3.14,7.73-.18,1.63,2.73-.44,6.22-1.78,9.07-.93,1.97-2.75,3.29-4.66,4.58-3.75,2.55-8.08,2.29-12.13,3.33-4.8,1.23-7.31,4.1-7.72,9.3-.47,5.95,1.44,10.92,6.98,12.3,4.91,1.22,10.71,1.14,15.6-.21,15.63-4.33,26.84-16.95,27.42-33.92.45-13.34.09-26.7.09-40.05Z" fill="#fff"/>
    <path d="m849.34,642.94c0,15.57.03,31.14,0,46.71-.06,25.22-15.18,42.08-37.12,48.68-13.76,4.14-25.93.28-33.2-10.23-3.17-4.59-4.22-10-2.79-15.49,1.5-5.75-.57-11.21-.89-16.79-.09-1.54-1.7-2.52-3.11-3.45-13.64-9.04-21.06-21.59-21.07-38.16-.02-21.03.43-42.07-.11-63.09-.31-12.01,13.64-22.09,25.11-20.77,13.55,1.56,21.86,11.9,21.26,24.34-.58,12.11-.15,24.26-.09,36.4,0,2.06-.69,4.77,2.98,4.59,3.32-.16,3.07-2.53,3.08-4.79.02-13.14.45-26.31-.06-39.43-.54-13.72,15.79-23.61,27.26-20.58,12.86,3.4,18.58,10.44,18.73,24.14.18,15.97.04,31.95.04,47.93Zm-11.92-7.01h.02c0-13.95.03-27.9-.01-41.85-.02-7.62-4.01-11.87-11.12-12.02-7.13-.15-11.98,4.68-12.01,12.09-.04,13.14,0,26.29-.04,39.43,0,1.97.21,3.87-.85,5.86-3.56,6.72-10.72,10.06-18.21,8.16-4.65-1.18-9.93-8.64-9.97-14.51-.1-13.14-.03-26.28-.04-39.43,0-7.78-3.81-11.7-11.24-11.61-6.6.08-11.79,5.18-11.81,11.76-.04,13.55.15,27.1-.05,40.64-.36,24.01,23.27,42.04,46.38,35.91,5.53-1.47,7.1.06,5.62,5.55-.8,2.94-2.69,5.22-5.01,7.25-4.09,3.57-9.2,3.64-14.09,4.54-6.15,1.12-7.08,6.05-7.37,10.9-.35,5.94,3.17,10.29,8.08,11.05,22.29,3.47,42.64-15.06,41.81-35.52-.52-12.72-.1-25.47-.1-38.21Z" fill="#fff"/>
    <path d="m739.03,651.11c0,8.29.03,16.59,0,24.88-.08,19.68-18.99,30.9-36.12,21.35-2.52-1.4-4.65-1.89-7.2-.31-10.71,6.63-22.02,4.18-32.61.64-17.28-5.78-28.75-18.21-34.64-35.45-1.53-4.5-2.48-9.43-2.47-14.17.02-12.63-2.02-25.63,1.83-37.8,4.8-15.18,14.39-27.07,29.26-34.13,13.7-6.5,28.02-7.64,42.2-3.32,13.24,4.04,23.94,12.18,31.38,24.43,6.74,11.09,8.59,23.06,8.37,35.66-.1,6.07-.02,12.14,0,18.21Zm-11.89-9.9s-.09,0-.14,0c0-6.06.07-12.13-.02-18.19-.11-7.36-3.04-13.8-6.43-20.19-8.31-15.65-33.41-23.62-50.84-19.07-28.39,7.41-40.9,42.1-25.81,66.9,7.99,13.13,20,18.91,34.55,20.91,7.56,1.04,15.08-3.37,15.75-9.51.94-8.49-3.72-14.08-12.95-14.17-4.8-.04-8.48-1.71-12.12-4.22-10.64-7.32-10.27-26.56.54-33.68,7.59-4.99,15.56-5.24,23.31-1.17,7.46,3.92,10.63,10.87,10.68,19.21.07,10.71-.08,21.43.13,32.14.13,6.94,4.72,11.43,11.35,11.68,6.24.24,11.78-5.1,11.96-11.85.17-6.26.04-12.53.04-18.8Z" fill="#fff"/>
    <path d="m331.27,636.13c.45,11.12.19,22.09-4.78,32.45-11.32,23.61-36.6,36.42-62.28,31.56-19.46-3.68-32.41-15.23-41.14-32.31-3.07-6.01-4.26-12.75-4.18-19.25.16-12.02-1.92-24.34,1.07-36.03,4.21-16.42,14.46-28.75,29.79-36.41,13.79-6.89,28.65-8.04,42.81-3.27,21.96,7.4,37.58,25,38.68,50.51.18,4.24.03,8.5.03,12.75Zm-100.69-9.45c-.39,27.08,19.37,45.47,44.66,45.23,26.73-.25,44.82-19.61,44.94-44.85.12-25.25-18.81-45.05-45.38-44.89-25.16.15-44.4,18.05-44.22,44.51Z" fill="#fff"/>
    <path d="m135.95,647c0-9.7.36-19.43-.07-29.11-.91-20.38,14.83-38.73,32.39-44.77,10.69-3.68,22.53-5.78,32.35,3.27,4.8,4.42,8.05,9.92,8.14,16.82.08,5.71-1.2,11.24-.26,17.16,1.65,10.41-5.6,22.02-21.17,24.53-5.2.84-5.39,3.1-5.34,7.1.15,12.33.07,24.67.04,37-.02,9.08-5.51,16.89-13.86,19.77-11.17,3.86-20.25,1.67-26.69-5.61-3.97-4.49-5.87-9.17-5.67-15.2.34-10.3.09-20.62.09-30.93.02,0,.03,0,.05,0Zm60.72-53.49c.4-4.36-1.93-7.66-6.66-10.05-6.41-3.24-12.17-.38-18.1,1.08-10.81,2.65-23.08,15.73-23.76,26.19-1.12,17.32-1.26,34.67-.26,52.02.17,3.03,1.44,5.34,3.47,6.43,4.25,2.27,8.84,3.78,13.66.69,4.28-2.75,6.23-6.34,6.16-11.47-.16-12.72.31-25.46-.19-38.16-.28-7.11,3.54-11.22,9.58-13.14,2.87-.91,5.8-1.66,8.71-2.43,5.28-1.4,7.46-4.99,7.39-11.14Z" fill="#fff"/>
    <path d="m253.67,626.83c-.4-11.42,9.3-20.58,21.07-20.78,12.05-.2,21.91,9.55,21.78,21.37-.12,10.64-9.04,20.61-21.17,21-12.73.41-22.51-11.87-21.68-21.59Z" fill="#fff"/>
  </g>
  <path d="m854.74,276.56c-1.46,0-2.85,0-4.31.06-4.98.22-9.46-2.85-10.86-7.67C793.95,113.51,650.22,0,480,0S166.05,113.51,120.43,268.95c-1.4,4.81-5.88,7.89-10.86,7.67-1.46-.06-2.85-.06-4.31-.06-56.31,0-101.59,47.41-98.07,104.5,3.08,48.92,42.88,88.72,91.8,91.74,43.6,2.74,81.55-23.06,97.06-60.45,9.46-22.89,32.07-37.56,56.87-37.56h454.17c24.74,0,47.41,14.67,56.87,37.56,15.5,37.45,53.45,63.19,97.06,60.45,48.92-3.02,88.72-42.82,91.8-91.74,3.53-57.09-41.76-104.5-98.07-104.5Zm-129.47,43.66H234.72c-25.92,0-45.9-21.21-41.59-44.5,23.23-125.55,142.79-221.15,286.86-221.15s263.63,95.6,286.86,221.15c4.31,23.28-15.67,44.5-41.59,44.5Z" fill="#fff"/>
</svg>