<?xml version="1.0" encoding="UTF-8"?>
<svg id="Layer_1" data-name="Layer 1" xmlns="http://www.w3.org/2000/svg" viewBox="0 0 48 48">
  <path d="m34.32,32.96c-.01-.48-.01-.97-.01-1.46,0-3.28-1.89-6.32-4.88-7.67-.02-.01-.04-.02-.07-.03-.4-.18-.9-.26-.65-.85.02-.07.06-.14.11-.22.74-1.24,1.12-2.38,1.14-3.43.04-1.23-.43-2.33-1.37-3.24-.07-.07-.14-.14-.22-.21-.39-.34-.85-.66-1.39-.94-.65-.3-1.37-.47-2.14-.47s-1.5.17-2.16.48c-.68.37-1.24.8-1.69,1.27-.06.06-.11.12-.16.18-.09.11-.17.22-.25.33-.51.69-.79,1.48-.84,2.35-.01.11-.02.22-.02.34,0,.4.04.8.13,1.23.13.63.34,1.26.76,1.73.22.25.34.44.38.61.1.41-.27.63-.85.88-.03,0-.05.02-.08.03-3.01,1.29-4.94,4.32-4.93,7.6,0,.56-.01,1.12-.02,1.68v.09c.02.49.37.9.83,1.01h.02c.06.01.11.02.17.02.11.01.2.01.27.01h.09l16.37-.02s.34.02.69-.03c.03,0,.05-.01.08-.01.36-.13.62-.43.7-.8-.01-.15-.01-.3-.01-.46Zm-9.42-16.3c1.51.02,2.84,1.37,2.83,2.85-.01,1.51-1.32,2.77-2.87,2.78-1.56,0-2.88-1.25-2.9-2.75-.02-1.52,1.4-2.91,2.94-2.88Zm-6.25,15.45c-.71,0-1.28-.57-1.31-1.28-.08-1.83.66-3.13,2.17-4.1,3.45-2.2,6.88-2.26,10.36-.08,1.62,1.01,2.36,2.4,2.24,4.31-.04.66-.62,1.15-1.27,1.14-2.04-.02-4.08,0-6.11,0s-4.04-.03-6.06.01h-.02Z"/>
  <path d="m24,0C10.75,0,0,10.74,0,24s10.75,24,24,24,24-10.75,24-24S37.25,0,24,0Zm0,46.06c-12.18,0-22.06-9.88-22.06-22.06S11.82,1.93,24,1.93s22.06,9.88,22.06,22.07-9.88,22.06-22.06,22.06Z"/>
</svg>