<?xml version="1.0" encoding="UTF-8"?>
<svg id="Layer_1" data-name="Layer 1" xmlns="http://www.w3.org/2000/svg" viewBox="0 0 93.95 95.4">
  <defs>
    <style>
      .cls-1 {
        fill: #fff;
      }

      .cls-2 {
        fill: none;
        stroke: #fff;
        stroke-linecap: round;
        stroke-linejoin: round;
        stroke-width: 3px;
      }
    </style>
  </defs>
  <path class="cls-1" d="m75.99,43.24c.06,0,.11.01.16.04l4.97,2.26c6.06,2.73,9.92,8.71,9.83,15.26v6.27c0,4.2-3.42,7.63-7.63,7.63h-.14c-.19,0-.36-.12-.4-.29-1.53-6.84-7.51-11.61-14.54-11.61h-28.69c-.14,0-.27-.08-.35-.2-1.57-2.37-3.48-4.46-5.68-6.23-.13-.11-.27-.31-.2-.53,1.48-4.6,4.81-8.35,9.18-10.32l4.85-2.24c.05-.02.11-.04.16-.04.06,0,.16.01.26.08,4.22,2.93,9.05,4.47,13.97,4.47s9.76-1.55,13.98-4.48c.1-.07.19-.08.25-.08m0-3c-.69,0-1.38.21-1.97.62-3.6,2.5-7.82,3.95-12.27,3.95s-8.67-1.45-12.26-3.94c-.59-.41-1.28-.62-1.97-.62-.48,0-.97.1-1.42.31l-4.85,2.24c-5.21,2.34-9.06,6.8-10.77,12.12-.45,1.39.04,2.88,1.18,3.79,1.95,1.56,3.66,3.44,5.05,5.54.64.96,1.7,1.55,2.86,1.55h28.69c5.69,0,10.42,3.94,11.61,9.27.35,1.55,1.74,2.63,3.33,2.63h.14c5.87,0,10.63-4.76,10.63-10.63v-6.27c.1-7.7-4.5-14.8-11.6-18l-4.95-2.26c-.45-.21-.93-.31-1.41-.31h0Z"/>
  <path class="cls-1" d="m61.75,3c7.28,0,13.2,7.09,13.2,15.8s-5.92,15.8-13.2,15.8-13.2-7.09-13.2-15.8,5.92-15.8,13.2-15.8m0-3c-8.95,0-16.2,8.42-16.2,18.8s7.25,18.8,16.2,18.8,16.2-8.42,16.2-18.8S70.7,0,61.75,0h0Z"/>
  <path class="cls-2" d="m66.21,73.21h-32.96c-1.97-6.74-8.15-11.71-15.54-11.71-8.9,0-16.2,7.3-16.2,16.2s7.3,16.2,16.2,16.2c7.4,0,13.58-4.96,15.54-11.71h16.86v5.24c0,1.5,1.22,2.72,2.72,2.72h8.9c1.5,0,2.72-1.22,2.72-2.72v-5.24h1.78c2.43,0,4.49-1.97,4.49-4.49,0-2.43-1.97-4.49-4.49-4.49Z"/>
</svg>