<?xml version="1.0" encoding="UTF-8"?>
<svg id="Layer_1" data-name="Layer 1" xmlns="http://www.w3.org/2000/svg" viewBox="0 0 92 92">
  <defs>
    <style>
      .cls-1 {
        fill: #fff;
      }
    </style>
  </defs>
  <path class="cls-1" d="m45.55,12.27c-4.45,0-8.9,0-13.35,0-3.43,0-6.14,2.77-6.14,6.14v10.48l-2.96,8.85c-.07.19-.11.39-.11.6v24.21c-.85.16-1.73.29-2.7.31-.86-.95-2.07-1.53-3.43-1.53-4.09,0-8.18,0-12.27,0-2.57,0-4.6,2.08-4.6,4.6v21.47c0,2.55,2.07,4.59,4.59,4.59h12.28c1.35,0,2.56-.6,3.41-1.53h5.11c.17,0,1.64.09,3.53.23,1.89.14,4.34.34,6.93.53,5.17.38,10.88.77,14.07.77,2.39,0,5.39-1.58,8.44-3.69s6.32-4.88,9.34-7.64c6.01-5.49,10.99-10.92,11.04-10.97.94-.94,1.72-1.92,2.17-3.07.45-1.15.52-2.47-.03-3.71-.83-2.03-2.81-3.26-4.94-3.18-.26,0-.51.04-.79.08v-21.48c0-.24-.08-.4-.12-.6l-2.36-7.07h2.48c2.67,0,5.61-1.28,7.97-2.46,1.18-.59,2.24-1.17,3.07-1.58.82-.41,1.03-.46,1.26-.55h3.02c.85,0,1.54-.69,1.54-1.54V3.07c0-.87-.71-1.56-1.57-1.54h-3.02c-1.27,0-5.22-.35-9.64-.76C73.21.38,68.35,0,64.41,0c-7.83,0-14.27,6.12-18.85,12.27Zm31.94-8.44c3.4.29,8.11.77,9.92.77.51,0,1.02.01,1.53,0v18.4h-1.53c-.81,0-1.7.43-2.61.88-.9.45-1.95,1.01-3.07,1.57-2.24,1.12-4.65,2.14-6.6,2.14h-12.3c-1.71-.02-3.04-1.41-3.04-3.07s1.34-3.06,3.07-3.06h10.73c2.05,0,2.04-3.07,0-3.07h-1.53c0-3.37-2.71-6.13-6.14-6.13-5.5,0-11,0-16.5,0,4.12-5.02,9.24-9.2,14.97-9.2,3.73,0,8.54.36,13.08.76Zm-11.56,11.51c1.72,0,3.07,1.38,3.07,3.07h-6.13c-3.37,0-6.14,2.71-6.14,6.12,0,1.13.3,2.17.82,3.07h-28.42v-9.19c0-1.69,1.34-3.07,3.07-3.07,11.25,0,22.48,0,33.73,0Zm-21.46,3.07c-2.04,0-2.04,3.07,0,3.07h9.2c2.05,0,2.05-3.07,0-3.07h-9.2Zm-15.76,12.26h40.73l2.04,6.14H26.66l2.05-6.14Zm-2.64,9.2h46v21.24l-16.37,7.9h-2.85c.52-.9.82-1.94.82-3.07s-.29-2.16-.82-3.07h10.02c2.05,0,2.05-3.07,0-3.07h-.08c-.59-5.35-4.23-9.79-9.19-11.5.04-.25.07-.5.07-.77,0-2.52-2.04-4.59-4.6-4.59s-4.6,2.07-4.6,4.59c0,.27.02.52.07.77-4.95,1.72-8.59,6.15-9.19,11.5h-1.62c-2.64,0-4.76.88-6.85,1.63-.27.1-.54.19-.81.28v-21.84Zm23,6.13c.83,0,1.53.66,1.53,1.53s-.69,1.54-1.53,1.54-1.53-.67-1.53-1.54.7-1.53,1.53-1.53Zm0,6.13c1.13,0,2.19-.42,2.99-1.11,4.01,1.15,7.03,4.59,7.63,8.77-7.08,0-14.16,0-21.25,0,.6-4.19,3.63-7.62,7.63-8.77.8.69,1.86,1.11,2.99,1.11Zm16.56,26.27c-2.96,2.7-6.14,5.4-9.01,7.38-2.86,1.98-5.27,3.15-6.7,3.15-2.94,0-8.69-.37-13.84-.76-2.58-.19-5.02-.39-6.92-.53s-3.12-.24-3.77-.24h-3.92v-21.53c2.54-.19,4.58-.88,6.47-1.56,2.14-.78,3.83-1.44,5.79-1.44h13.81c1.73,0,3.06,1.41,3.06,3.07s-1.33,3.07-3.06,3.07h-10.74c-2.04,0-2.04,3.07,0,3.07,6.42,0,12.83,0,19.25,0,.23,0,.46-.05.67-.16l18.39-8.88c.39-.19.86-.27,1.21-.22.47.05.86.24,1.13.47.39.33,1.05,1.21.58,2.27-.21.54-.68,1.18-1.48,1.99,0,0-5.01,5.46-10.93,10.86Zm-61.03-14.01c4.09,0,8.18,0,12.27,0,.88,0,1.53.71,1.53,1.53v21.47c0,.88-.71,1.53-1.53,1.53H4.59c-.82,0-1.53-.65-1.53-1.53v-21.47c0-.83.65-1.53,1.53-1.53Z"/>
</svg>