<?xml version="1.0" encoding="UTF-8"?>
<svg id="Layer_1" data-name="Layer 1" xmlns="http://www.w3.org/2000/svg" viewBox="0 0 93.5 93.5">
  <defs>
    <style>
      .cls-1 {
        fill: #fff;
        fill-rule: evenodd;
        stroke: #fff;
        stroke-miterlimit: 10;
        stroke-width: 1.5px;
      }
    </style>
  </defs>
  <path class="cls-1" d="m13.53,4.58c0-2.12,1.72-3.83,3.83-3.83h56.22c2.12,0,3.83,1.72,3.83,3.83v56.22c0,2.12-1.72,3.83-3.83,3.83H17.36c-2.12,0-3.83-1.72-3.83-3.83V4.58Zm3.83-1.28c-.71,0-1.28.57-1.28,1.28v56.22c0,.71.57,1.28,1.28,1.28h56.22c.71,0,1.28-.57,1.28-1.28V4.58c0-.71-.57-1.28-1.28-1.28H17.36Z"/>
  <path class="cls-1" d="m33.97,2.03c0-.71.57-1.28,1.28-1.28h20.44c.71,0,1.28.57,1.28,1.28v17.89c0,.44-.23.85-.61,1.09-.38.23-.85.25-1.24.06l-4.54-2.27-4.54,2.27c-.36.18-.78.18-1.14,0l-4.54-2.27-4.54,2.27c-.4.2-.87.18-1.24-.06-.38-.23-.61-.64-.61-1.09V2.03Zm2.56,1.28v14.54l3.26-1.63c.36-.18.78-.18,1.14,0l4.54,2.27,4.54-2.27c.36-.18.78-.18,1.14,0l3.26,1.63V3.31h-17.89Z"/>
  <path class="cls-1" d="m16.08,83.81c0-.71.57-1.28,1.28-1.28h17.89c.71,0,1.28.57,1.28,1.28s-.57,1.28-1.28,1.28h-17.89c-.71,0-1.28-.57-1.28-1.28Z"/>
  <path class="cls-1" d="m54.42,83.81c0-.71.57-1.28,1.28-1.28h15.33c.71,0,1.28.57,1.28,1.28s-.57,1.28-1.28,1.28h-15.33c-.71,0-1.28-.57-1.28-1.28Z"/>
  <path class="cls-1" d="m7.14,79.97c-2.12,0-3.83,1.72-3.83,3.83s1.72,3.83,3.83,3.83,3.83-1.72,3.83-3.83-1.72-3.83-3.83-3.83Zm-6.39,3.83c0-3.53,2.86-6.39,6.39-6.39s6.39,2.86,6.39,6.39-2.86,6.39-6.39,6.39-6.39-2.86-6.39-6.39Z"/>
  <path class="cls-1" d="m45.47,79.97c-2.12,0-3.83,1.72-3.83,3.83s1.72,3.83,3.83,3.83,3.83-1.72,3.83-3.83-1.72-3.83-3.83-3.83Zm-6.39,3.83c0-3.53,2.86-6.39,6.39-6.39s6.39,2.86,6.39,6.39-2.86,6.39-6.39,6.39-6.39-2.86-6.39-6.39Z"/>
  <path class="cls-1" d="m82.45,76.15c.24.67-.11,1.4-.78,1.63-2.48.88-4.26,3.25-4.26,6.03,0,3.53,2.86,6.39,6.39,6.39,2.78,0,5.15-1.78,6.03-4.26.24-.67.97-1.01,1.63-.78.67.24,1.01.97.78,1.63-1.23,3.47-4.54,5.96-8.44,5.96-4.94,0-8.94-4-8.94-8.94,0-3.9,2.49-7.21,5.96-8.44.67-.24,1.4.11,1.63.78Z"/>
  <path class="cls-1" d="m92.38,77.79c.5.5.5,1.31,0,1.81l-6.39,6.39c-.5.5-1.31.5-1.81,0l-2.56-2.56c-.5-.5-.5-1.31,0-1.81.5-.5,1.31-.5,1.81,0l1.65,1.65,5.49-5.49c.5-.5,1.31-.5,1.81,0Z"/>
</svg>