<?xml version="1.0" encoding="UTF-8"?>
<svg id="Layer_1" data-name="Layer 1" xmlns="http://www.w3.org/2000/svg" viewBox="0 0 93.31 63.82">
  <defs>
    <style>
      .cls-1 {
        fill: #fff;
      }
    </style>
  </defs>
  <path class="cls-1" d="m82.86,0H10.46C4.68,0,0,4.68,0,10.46v42.9c0,5.77,4.68,10.45,10.46,10.46h72.4c5.77,0,10.45-4.68,10.46-10.46V10.46c0-5.77-4.68-10.45-10.46-10.46ZM10.46,4.83h72.4c.65,0,1.3.13,1.91.35l-35.4,26.06c-1.6,1.2-3.79,1.19-5.38-.01l-2.57-1.91C33.01,23.08,18.04,11.97,8.72,5.13c.56-.19,1.14-.29,1.74-.3Zm78.03,48.53c0,3.11-2.52,5.63-5.63,5.63H10.46c-3.11,0-5.63-2.52-5.63-5.63V10.46c0-.66.13-1.31.36-1.93,9.24,6.77,24.74,18.28,33.34,24.67l2.57,1.91c3.29,2.49,7.83,2.5,11.14.03l35.92-26.47c.21.58.31,1.18.32,1.79v42.9Z"/>
</svg>