<?xml version="1.0" encoding="UTF-8"?>
<svg id="Layer_1" data-name="Layer 1" xmlns="http://www.w3.org/2000/svg" xmlns:xlink="http://www.w3.org/1999/xlink" viewBox="0 0 132.44 132">
  <defs>
    <style>
      .cls-1 {
        clip-path: url(#clippath-4);
      }

      .cls-1, .cls-2, .cls-3, .cls-4, .cls-5, .cls-6, .cls-7, .cls-8 {
        fill: none;
      }

      .cls-9 {
        fill: #ced4da;
      }

      .cls-2 {
        clip-path: url(#clippath-2);
      }

      .cls-3 {
        clip-path: url(#clippath-6);
      }

      .cls-10 {
        fill: #fffeff;
      }

      .cls-4 {
        clip-path: url(#clippath-5);
      }

      .cls-5 {
        clip-path: url(#clippath-3);
      }

      .cls-7 {
        clip-path: url(#clippath);
      }

      .cls-8 {
        clip-path: url(#clippath-1);
      }
    </style>
    <clipPath id="clippath">
      <rect class="cls-6" x="16" y="16" width="100" height="100"/>
    </clipPath>
    <clipPath id="clippath-1">
      <rect class="cls-6" width="132" height="132"/>
    </clipPath>
    <clipPath id="clippath-2">
      <rect class="cls-6" x=".44" width="132" height="132"/>
    </clipPath>
    <clipPath id="clippath-3">
      <rect class="cls-6" x="42.35" y="33.22" width="46.2" height="13.64"/>
    </clipPath>
    <clipPath id="clippath-4">
      <rect class="cls-6" x="42.35" y="51.48" width="46.2" height="13.64"/>
    </clipPath>
    <clipPath id="clippath-5">
      <rect class="cls-6" x="42.35" y="69.74" width="46.2" height="13.64"/>
    </clipPath>
    <clipPath id="clippath-6">
      <rect class="cls-6" x="42.35" y="87.78" width="46.2" height="13.64"/>
    </clipPath>
  </defs>
  <g class="cls-7">
    <g class="cls-8">
      <g class="cls-2">
        <g>
          <g>
            <path d="m103.92,28.32v80.06c0,3.61-2.93,6.54-6.54,6.54h-59.85s-.08,0-.12,0c-2.68-.05-4.97-1.71-5.93-4.06-.32-.77-.49-1.61-.49-2.49V28.32c0-3.61,2.93-6.54,6.54-6.54h59.85c3.61,0,6.54,2.93,6.54,6.54Z"/>
            <path d="m103.92,28.32v80.06c0,3.61-2.93,6.54-6.54,6.54h-59.85s-.08,0-.12,0c-2.68-.05-4.97-1.71-5.93-4.06-.32-.77-.49-1.61-.49-2.49V28.32c0-3.61,2.93-6.54,6.54-6.54h59.85c3.61,0,6.54,2.93,6.54,6.54Z"/>
            <path d="m103.93,37.43v70.95c0,3.61-2.93,6.54-6.54,6.54h-52.25c57.99-2.67,58.8-77.49,58.8-77.49Z"/>
          </g>
          <g>
            <path class="cls-10" d="m38.31,26.97v77.03l4.44,4.44h53.87V26.97h-58.3Z"/>
            <path class="cls-9" d="m42.74,108.43l-4.44-4.44h4.44v4.44Z"/>
          </g>
          <g class="cls-5">
            <g>
              <path d="m56.48,40.43c0,3.4-2.76,6.16-6.16,6.16s-6.16-2.76-6.16-6.16,2.76-6.16,6.16-6.16,6.16,2.76,6.16,6.16Z"/>
              <path class="cls-9" d="m52.66,38.87l-.75,1.63-1.28.12-.74-1.05.75-1.63c-1.23.11-2.14,1.2-2.03,2.43.04.4.18.79.42,1.12l-.03.05-1.73,3.78-.24.53c.62.35,1.3.58,2.01.68l.25-.56,1.63-3.56h0c1.23-.06,2.2-1.1,2.15-2.33-.02-.44-.16-.86-.41-1.21h0Z"/>
              <path d="m86.17,44.19h-24.8c-.59,0-1.07-.48-1.07-1.07s.48-1.07,1.07-1.07h24.8c.59,0,1.07.48,1.07,1.07s-.48,1.07-1.07,1.07Z"/>
              <path d="m82.31,38.81h-20.94c-.59,0-1.07-.48-1.07-1.07s.48-1.07,1.07-1.07h20.94c.59,0,1.07.48,1.07,1.07s-.48,1.07-1.07,1.07Z"/>
            </g>
          </g>
          <g class="cls-1">
            <g>
              <path d="m56.48,58.69c0,3.4-2.76,6.16-6.16,6.16s-6.16-2.76-6.16-6.16,2.76-6.16,6.16-6.16,6.16,2.76,6.16,6.16Z"/>
              <path class="cls-9" d="m52.66,57.13l-.75,1.63-1.28.12-.74-1.05.75-1.63c-1.23.11-2.14,1.2-2.03,2.43.04.4.18.79.42,1.12l-.03.05-1.73,3.78-.24.53c.62.35,1.3.58,2.01.68l.25-.56,1.63-3.56h0c1.23-.06,2.2-1.1,2.15-2.33-.02-.44-.16-.86-.41-1.21h0Z"/>
              <path d="m86.17,62.45h-24.8c-.59,0-1.07-.48-1.07-1.07s.48-1.07,1.07-1.07h24.8c.59,0,1.07.48,1.07,1.07s-.48,1.07-1.07,1.07Z"/>
              <path d="m82.31,57.07h-20.94c-.59,0-1.07-.48-1.07-1.07s.48-1.07,1.07-1.07h20.94c.59,0,1.07.48,1.07,1.07s-.48,1.07-1.07,1.07Z"/>
            </g>
          </g>
          <g class="cls-4">
            <g>
              <path d="m56.48,76.95c0,3.4-2.76,6.16-6.16,6.16s-6.16-2.76-6.16-6.16,2.76-6.16,6.16-6.16,6.16,2.76,6.16,6.16Z"/>
              <path class="cls-9" d="m52.66,75.39l-.75,1.63-1.28.12-.74-1.05.75-1.63c-1.23.11-2.14,1.2-2.03,2.43.04.4.18.79.42,1.12l-.03.05-1.73,3.78-.24.53c.62.35,1.3.58,2.01.68l.25-.56,1.63-3.56h0c1.23-.06,2.2-1.1,2.15-2.33-.02-.44-.16-.86-.41-1.21h0Z"/>
              <path d="m86.17,80.71h-24.8c-.59,0-1.07-.48-1.07-1.07s.48-1.07,1.07-1.07h24.8c.59,0,1.07.48,1.07,1.07s-.48,1.07-1.07,1.07Z"/>
              <path d="m82.31,75.33h-20.94c-.59,0-1.07-.48-1.07-1.07s.48-1.07,1.07-1.07h20.94c.59,0,1.07.48,1.07,1.07s-.48,1.07-1.07,1.07Z"/>
            </g>
          </g>
          <g class="cls-3">
            <g>
              <path d="m56.48,94.99c0,3.4-2.76,6.16-6.16,6.16s-6.16-2.76-6.16-6.16,2.76-6.16,6.16-6.16,6.16,2.76,6.16,6.16Z"/>
              <path class="cls-9" d="m52.66,93.43l-.75,1.63-1.28.12-.74-1.05.75-1.63c-1.23.11-2.14,1.2-2.03,2.43.04.4.18.79.42,1.12l-.03.05-1.73,3.78-.24.53c.62.35,1.3.58,2.01.68l.25-.56,1.63-3.56h0c1.23-.06,2.2-1.1,2.15-2.33-.02-.44-.16-.86-.41-1.21h0Z"/>
              <path d="m86.17,98.75h-24.8c-.59,0-1.07-.48-1.07-1.07s.48-1.07,1.07-1.07h24.8c.59,0,1.07.48,1.07,1.07s-.48,1.07-1.07,1.07Z"/>
              <path d="m82.31,93.37h-20.94c-.59,0-1.07-.48-1.07-1.07s.48-1.07,1.07-1.07h20.94c.59,0,1.07.48,1.07,1.07s-.48,1.07-1.07,1.07Z"/>
            </g>
          </g>
          <path class="cls-9" d="m78.62,19.54h-5.82c-.68,0-1.23-.55-1.23-1.23,0-.93-.76-1.7-1.7-1.7h-4.82c-.93,0-1.7.76-1.7,1.7,0,.68-.55,1.23-1.23,1.23h-5.82c-.69,0-1.24.56-1.24,1.24v7.47c0,.47.26.88.65,1.09.18.1.38.15.59.15h22.32c.69,0,1.24-.56,1.24-1.24v-7.47c0-.69-.56-1.24-1.24-1.24Z"/>
          <path d="m78.38,28.55h-.78c-.11,0-.19-.09-.19-.19s.09-.19.19-.19h.78c.11,0,.19.09.19.19s-.09.19-.19.19Zm-1.95,0h-.78c-.11,0-.19-.09-.19-.19s.09-.19.19-.19h.78c.11,0,.19.09.19.19s-.09.19-.19.19Zm-1.95,0h-.78c-.11,0-.19-.09-.19-.19s.09-.19.19-.19h.78c.11,0,.19.09.19.19s-.09.19-.19.19Zm-1.95,0h-.78c-.11,0-.19-.09-.19-.19s.09-.19.19-.19h.78c.11,0,.19.09.19.19s-.09.19-.19.19Zm-1.95,0h-.78c-.11,0-.19-.09-.19-.19s.09-.19.19-.19h.78c.11,0,.19.09.19.19s-.09.19-.19.19Zm-1.95,0h-.78c-.11,0-.19-.09-.19-.19s.09-.19.19-.19h.78c.11,0,.19.09.19.19s-.09.19-.19.19Zm-1.95,0h-.78c-.11,0-.19-.09-.19-.19s.09-.19.19-.19h.78c.11,0,.19.09.19.19s-.09.19-.19.19Zm-1.95,0h-.78c-.11,0-.19-.09-.19-.19s.09-.19.19-.19h.78c.11,0,.19.09.19.19s-.09.19-.19.19Zm-1.95,0h-.78c-.11,0-.19-.09-.19-.19s.09-.19.19-.19h.78c.11,0,.19.09.19.19s-.09.19-.19.19Zm-1.95,0h-.78c-.11,0-.19-.09-.19-.19s.09-.19.19-.19h.78c.11,0,.19.09.19.19s-.09.19-.19.19Zm-1.95,0h-.78c-.11,0-.19-.09-.19-.19s.09-.19.19-.19h.78c.11,0,.19.09.19.19s-.09.19-.19.19Zm-1.95,0h-.44c-.16,0-.32-.06-.44-.18-.08-.07-.08-.2,0-.27.07-.08.2-.08.27,0,.05.05.11.07.18.07h.44c.11,0,.19.09.19.19s-.09.19-.19.19Zm21.85-.91c-.11,0-.19-.09-.19-.19v-.78c0-.11.09-.19.19-.19s.19.09.19.19v.78c0,.11-.09.19-.19.19Zm-22.74-.34c-.11,0-.19-.09-.19-.19v-.78c0-.11.09-.19.19-.19s.19.09.19.19v.78c0,.11-.09.19-.19.19Zm22.74-1.61c-.11,0-.19-.09-.19-.19v-.78c0-.11.09-.19.19-.19s.19.09.19.19v.78c0,.11-.09.19-.19.19Zm-22.74-.34c-.11,0-.19-.09-.19-.19v-.78c0-.11.09-.19.19-.19s.19.09.19.19v.78c0,.11-.09.19-.19.19Zm22.74-1.61c-.11,0-.19-.09-.19-.19v-.78c0-.11.09-.19.19-.19s.19.09.19.19v.78c0,.11-.09.19-.19.19Zm-22.74-.34c-.11,0-.19-.09-.19-.19v-.78c0-.11.09-.19.19-.19s.19.09.19.19v.78c0,.11-.09.19-.19.19Zm22.74-1.61c-.11,0-.19-.09-.19-.19v-.6s0-.07-.02-.1c-.04-.1,0-.21.1-.25.1-.04.21,0,.25.1.03.08.05.16.05.25v.6c0,.11-.09.19-.19.19Zm-22.74-.34c-.11,0-.19-.09-.19-.19v-.26c0-.25.15-.48.38-.59.1-.04.21,0,.26.09.04.1,0,.21-.09.26-.09.04-.15.14-.15.24v.26c0,.11-.09.19-.19.19Zm21.66-.71h-.78c-.11,0-.19-.09-.19-.19s.09-.19.19-.19h.78c.11,0,.19.09.19.19s-.09.19-.19.19Zm-1.95,0h-.78c-.11,0-.19-.09-.19-.19s.09-.19.19-.19h.78c.11,0,.19.09.19.19s-.09.19-.19.19Zm-1.95,0h-.78c-.11,0-.19-.09-.19-.19s.09-.19.19-.19h.78c.11,0,.19.09.19.19s-.09.19-.19.19Zm-1.95,0h-.78c-.11,0-.19-.09-.19-.19s.09-.19.19-.19h.78c.11,0,.19.09.19.19s-.09.19-.19.19Zm-1.95,0h-.78c-.11,0-.19-.09-.19-.19s.09-.19.19-.19h.78c.11,0,.19.09.19.19s-.09.19-.19.19Zm-1.95,0h-.78c-.11,0-.19-.09-.19-.19s.09-.19.19-.19h.78c.11,0,.19.09.19.19s-.09.19-.19.19Zm-1.95,0h-.78c-.11,0-.19-.09-.19-.19s.09-.19.19-.19h.78c.11,0,.19.09.19.19s-.09.19-.19.19Zm-1.95,0h-.78c-.11,0-.19-.09-.19-.19s.09-.19.19-.19h.78c.11,0,.19.09.19.19s-.09.19-.19.19Zm-1.95,0h-.78c-.11,0-.19-.09-.19-.19s.09-.19.19-.19h.78c.11,0,.19.09.19.19s-.09.19-.19.19Zm-1.95,0h-.78c-.11,0-.19-.09-.19-.19s.09-.19.19-.19h.78c.11,0,.19.09.19.19s-.09.19-.19.19Zm-1.95,0h-.78c-.11,0-.19-.09-.19-.19s.09-.19.19-.19h.78c.11,0,.19.09.19.19s-.09.19-.19.19Z"/>
        </g>
      </g>
    </g>
  </g>
</svg>