<?xml version="1.0" encoding="UTF-8"?>
<svg id="Layer_1" data-name="Layer 1" xmlns="http://www.w3.org/2000/svg" viewBox="0 0 72.93 98.32">
  <path d="m72.93,11.72v80.06c0,3.61-2.93,6.54-6.54,6.54H6.54s-.08,0-.12,0c-2.68-.05-4.97-1.71-5.93-4.06-.32-.77-.49-1.61-.49-2.49V11.72c0-3.61,2.93-6.54,6.54-6.54h59.85c3.61,0,6.54,2.93,6.54,6.54Z"/>
  <path d="m7.31,10.36v77.03l4.44,4.44h53.87V10.36H7.31Z" fill="#fffeff"/>
  <path d="m11.75,91.83l-4.44-4.44h4.44v4.44Z" fill="#ced4da"/>
  <path d="m47.63,2.93h-5.82c-.68,0-1.23-.55-1.23-1.23,0-.93-.76-1.7-1.7-1.7h-4.82c-.93,0-1.7.76-1.7,1.7,0,.68-.55,1.23-1.23,1.23h-5.82c-.69,0-1.24.56-1.24,1.24v7.47c0,.47.26.88.65,1.09.18.1.38.15.59.15h22.32c.69,0,1.24-.56,1.24-1.24v-7.47c0-.69-.56-1.24-1.24-1.24Z" fill="#ced4da"/>
  <path d="m47.39,11.95h-.78c-.11,0-.19-.09-.19-.19s.09-.19.19-.19h.78c.11,0,.19.09.19.19s-.09.19-.19.19Zm-1.95,0h-.78c-.11,0-.19-.09-.19-.19s.09-.19.19-.19h.78c.11,0,.19.09.19.19s-.09.19-.19.19Zm-1.95,0h-.78c-.11,0-.19-.09-.19-.19s.09-.19.19-.19h.78c.11,0,.19.09.19.19s-.09.19-.19.19Zm-1.95,0h-.78c-.11,0-.19-.09-.19-.19s.09-.19.19-.19h.78c.11,0,.19.09.19.19s-.09.19-.19.19Zm-1.95,0h-.78c-.11,0-.19-.09-.19-.19s.09-.19.19-.19h.78c.11,0,.19.09.19.19s-.09.19-.19.19Zm-1.95,0h-.78c-.11,0-.19-.09-.19-.19s.09-.19.19-.19h.78c.11,0,.19.09.19.19s-.09.19-.19.19Zm-1.95,0h-.78c-.11,0-.19-.09-.19-.19s.09-.19.19-.19h.78c.11,0,.19.09.19.19s-.09.19-.19.19Zm-1.95,0h-.78c-.11,0-.19-.09-.19-.19s.09-.19.19-.19h.78c.11,0,.19.09.19.19s-.09.19-.19.19Zm-1.95,0h-.78c-.11,0-.19-.09-.19-.19s.09-.19.19-.19h.78c.11,0,.19.09.19.19s-.09.19-.19.19Zm-1.95,0h-.78c-.11,0-.19-.09-.19-.19s.09-.19.19-.19h.78c.11,0,.19.09.19.19s-.09.19-.19.19Zm-1.95,0h-.78c-.11,0-.19-.09-.19-.19s.09-.19.19-.19h.78c.11,0,.19.09.19.19s-.09.19-.19.19Zm-1.95,0h-.44c-.16,0-.32-.06-.44-.18-.08-.07-.08-.2,0-.27.07-.08.2-.08.27,0,.05.05.11.07.18.07h.44c.11,0,.19.09.19.19s-.09.19-.19.19Zm21.85-.91c-.11,0-.19-.09-.19-.19v-.78c0-.11.09-.19.19-.19s.19.09.19.19v.78c0,.11-.09.19-.19.19Zm-22.74-.34c-.11,0-.19-.09-.19-.19v-.78c0-.11.09-.19.19-.19s.19.09.19.19v.78c0,.11-.09.19-.19.19Zm22.74-1.61c-.11,0-.19-.09-.19-.19v-.78c0-.11.09-.19.19-.19s.19.09.19.19v.78c0,.11-.09.19-.19.19Zm-22.74-.34c-.11,0-.19-.09-.19-.19v-.78c0-.11.09-.19.19-.19s.19.09.19.19v.78c0,.11-.09.19-.19.19Zm22.74-1.61c-.11,0-.19-.09-.19-.19v-.78c0-.11.09-.19.19-.19s.19.09.19.19v.78c0,.11-.09.19-.19.19Zm-22.74-.34c-.11,0-.19-.09-.19-.19v-.78c0-.11.09-.19.19-.19s.19.09.19.19v.78c0,.11-.09.19-.19.19Zm22.74-1.61c-.11,0-.19-.09-.19-.19v-.6s0-.07-.02-.1c-.04-.1,0-.21.1-.25.1-.04.21,0,.25.1.03.08.05.16.05.25v.6c0,.11-.09.19-.19.19Zm-22.74-.34c-.11,0-.19-.09-.19-.19v-.26c0-.25.15-.48.38-.59.1-.04.21,0,.26.09.04.1,0,.21-.09.26-.09.04-.15.14-.15.24v.26c0,.11-.09.19-.19.19Zm21.66-.71h-.78c-.11,0-.19-.09-.19-.19s.09-.19.19-.19h.78c.11,0,.19.09.19.19s-.09.19-.19.19Zm-1.95,0h-.78c-.11,0-.19-.09-.19-.19s.09-.19.19-.19h.78c.11,0,.19.09.19.19s-.09.19-.19.19Zm-1.95,0h-.78c-.11,0-.19-.09-.19-.19s.09-.19.19-.19h.78c.11,0,.19.09.19.19s-.09.19-.19.19Zm-1.95,0h-.78c-.11,0-.19-.09-.19-.19s.09-.19.19-.19h.78c.11,0,.19.09.19.19s-.09.19-.19.19Zm-1.95,0h-.78c-.11,0-.19-.09-.19-.19s.09-.19.19-.19h.78c.11,0,.19.09.19.19s-.09.19-.19.19Zm-1.95,0h-.78c-.11,0-.19-.09-.19-.19s.09-.19.19-.19h.78c.11,0,.19.09.19.19s-.09.19-.19.19Zm-1.95,0h-.78c-.11,0-.19-.09-.19-.19s.09-.19.19-.19h.78c.11,0,.19.09.19.19s-.09.19-.19.19Zm-1.95,0h-.78c-.11,0-.19-.09-.19-.19s.09-.19.19-.19h.78c.11,0,.19.09.19.19s-.09.19-.19.19Zm-1.95,0h-.78c-.11,0-.19-.09-.19-.19s.09-.19.19-.19h.78c.11,0,.19.09.19.19s-.09.19-.19.19Zm-1.95,0h-.78c-.11,0-.19-.09-.19-.19s.09-.19.19-.19h.78c.11,0,.19.09.19.19s-.09.19-.19.19Zm-1.95,0h-.78c-.11,0-.19-.09-.19-.19s.09-.19.19-.19h.78c.11,0,.19.09.19.19s-.09.19-.19.19Z"/>
</svg>