<?xml version="1.0" encoding="UTF-8"?>
<svg id="Layer_1" data-name="Layer 1" xmlns="http://www.w3.org/2000/svg" viewBox="0 0 94 85.18">
  <defs>
    <style>
      .cls-1 {
        fill: #fff;
        fill-rule: evenodd;
      }
    </style>
  </defs>
  <path class="cls-1" d="m34.65,68.64c-4.57,0-8.27,3.7-8.27,8.27s3.7,8.27,8.27,8.27,8.27-3.7,8.27-8.27h0c0-4.57-3.7-8.27-8.27-8.27Zm30.1,0c-4.57,0-8.27,3.7-8.27,8.27s3.7,8.27,8.27,8.27,8.27-3.7,8.27-8.27h0c0-4.57-3.7-8.27-8.27-8.27Zm-30.1,4.5c2.08,0,3.77,1.69,3.77,3.77s-1.69,3.77-3.77,3.77c-2.08,0-3.77-1.69-3.77-3.77h0c0-2.08,1.69-3.77,3.77-3.77Zm30.1,0c2.08,0,3.77,1.69,3.77,3.77,0,2.08-1.69,3.77-3.77,3.77-2.08,0-3.77-1.69-3.77-3.77h0c0-2.08,1.69-3.77,3.77-3.77ZM15.72,4.5s3.62,37,5.01,50.14c.6,5.73,5.43,10.07,11.19,10.07h38.29c4.91,0,9.25-3.18,10.73-7.86,3.96-12.54,12.46-39.47,12.46-39.47.38-1.18-.28-2.45-1.46-2.82-.22-.07-.45-.11-.68-.11H21.07l-1.03-12.39c-.1-1.17-1.07-2.06-2.24-2.06H5.75c-1.24,0-2.25,1.01-2.25,2.25s1.01,2.25,2.25,2.25h9.97Zm72.46,14.45l-11.54,36.54c-.89,2.81-3.49,4.72-6.44,4.72H31.91c-3.45,0-6.35-2.61-6.71-6.04l-3.71-35.22h66.68Zm-35.31,5.68c-8.25,0-14.94,6.69-14.94,14.95s6.69,14.94,14.95,14.94c8.25,0,14.94-6.69,14.94-14.94,0-8.25-6.69-14.94-14.95-14.95h0Zm0,4.5c5.77,0,10.44,4.68,10.44,10.45,0,5.77-4.68,10.44-10.45,10.44-5.77,0-10.44-4.68-10.44-10.44,0-5.77,4.68-10.44,10.45-10.45Zm-1.32,9.96l-1.17-1.17c-.88-.88-2.3-.88-3.18,0s-.88,2.3,0,3.18l2.76,2.76c.72.72,1.83.87,2.71.36l.05-.03.05-.03.05-.03.04-.03.05-.03.05-.04.04-.04.04-.04.04-.04.04-.04.02-.02,5.39-5.39c.88-.87.89-2.3.02-3.18-.87-.88-2.3-.89-3.18-.02,0,0-.01.01-.02.02l-3.8,3.8Z"/>
</svg>