<svg id="Layer_1" data-name="Layer 1" xmlns="http://www.w3.org/2000/svg" viewBox="0 0 20 21.06"><title>Home</title><g id="Iconly_Bold_Home" data-name="Iconly/Bold/Home"><g id="Home"><path d="M9.1,20.8V17.7a1.37,1.37,0,0,1,1.4-1.4h2.9a1.37,1.37,0,0,1,1.4,1.4v3.1a1.22,1.22,0,0,0,.4.9,1.09,1.09,0,0,0,.9.4h2a3.41,3.41,0,0,0,3.4-3.4V9.9A2.46,2.46,0,0,0,20.6,8L13.9,2.7a3,3,0,0,0-3.9.1L3.5,8a2.28,2.28,0,0,0-1,1.9v8.7A3.4,3.4,0,0,0,6,22H7.9a1.16,1.16,0,0,0,1.2-1.2Z" transform="translate(-2 -1.54)" fill="#b3baef" stroke="#b3baef" stroke-miterlimit="10"/></g></g></svg>