<?xml version="1.0" encoding="UTF-8"?>
<svg id="Layer_1" data-name="Layer 1" xmlns="http://www.w3.org/2000/svg" viewBox="0 0 72.34 94">
  <defs>
    <style>
      .cls-1 {
        fill: #fff;
      }
    </style>
  </defs>
  <path class="cls-1" d="m14.35,53.54s.06.02.1.02h27.58c1.58,0,2.87,1.28,2.87,2.87s-1.28,2.87-2.87,2.87H14.34s-.06-.01-.06-.01c-4.72.04-8.53,3.88-8.54,8.6v20.37s54.46,0,54.46,0v-20.77h0c0-1.59,1.29-2.87,2.87-2.87,1.58,0,2.87,1.29,2.87,2.87v23.64h0c0,1.59-1.29,2.87-2.87,2.87H2.87c-1.58,0-2.87-1.29-2.87-2.87v-23.24c0-7.92,6.43-14.34,14.35-14.35ZM2.87,0C1.28,0,0,1.29,0,2.87v23.24c0,7.92,6.43,14.34,14.35,14.35.03,0,.06-.02.1-.02h30.5c1.58,0,2.87-1.29,2.87-2.87v-5.14s17.22,14.58,17.22,14.58l-21.94,18.58h0c-1.21,1.02-1.36,2.84-.34,4.05,1.02,1.21,2.84,1.36,4.05.34l24.53-20.77c.12-.1.23-.21.33-.33,1.02-1.21.87-3.02-.33-4.04l-24.53-20.77c-.52-.44-1.17-.68-1.85-.68-1.59,0-2.87,1.28-2.87,2.87v8.47H14.34s-.06.01-.06.01c-4.72-.04-8.53-3.88-8.54-8.6V5.74h54.46v20.83c0,1.58,1.28,2.87,2.87,2.87,1.58,0,2.87-1.28,2.87-2.87V2.87h0C65.94,1.28,64.65,0,63.07,0H2.87s0,0,0,0Z"/>
</svg>