<?xml version="1.0" encoding="UTF-8"?>
<svg id="Layer_1" data-name="Layer 1" xmlns="http://www.w3.org/2000/svg" viewBox="0 0 88 88">
  <defs>
    <style>
      .cls-1 {
        fill: #fff;
        fill-rule: evenodd;
      }
    </style>
  </defs>
  <path class="cls-1" d="m81.05,78.73c-.56.56-14.03,13.52-40.49-5.53-.06-.04-.12-.09-.19-.13-2.87-1.65-7.45-5.61-13.5-11.65-.04-.04-.07-.08-.11-.12-.01-.01-.02-.03-.04-.04,0,0,0,0-.01-.01-6.16-6.16-10.11-10.74-11.76-13.61-.04-.07-.08-.13-.12-.19C-4.24,20.98,8.72,7.5,9.29,6.94c1.17-1.17,3.64-1.91,5.92-2.25s4.34.89,5.17,2.95c.73,1.83,1.81,4.39,3.36,8.02,1.12,2.63,2.5,5.87,3.42,8.14.67,1.65.37,3.52-.77,4.88-1.04,1.25-2.69,3.06-5.29,5.66-1.36,1.36-3.22,3.22,11.75,20.18l.66.66c16.97,14.94,18.82,13.09,20.18,11.73,2.58-2.58,4.38-4.23,5.63-5.27,1.36-1.14,3.22-1.44,4.87-.79,2.3.92,5.53,2.3,8.16,3.42,3.64,1.55,6.2,2.63,8.03,3.36,2.06.83,3.29,2.97,2.96,5.17s-1.08,4.75-2.25,5.93m3.99-14.17c-1.04-.21-6.77-2.65-10.96-4.43-8.71-3.71-11.23-4.72-12.36-4.77-1.22-.05-2.8.35-7.91,5.13-1.67,1.56-4.2,1.75-6.06.43-2.92-2.07-6.99-5.34-11.19-9.02-.16-.14-.31-.29-.45-.45-3.64-4.14-6.94-8.25-9.03-11.2-1.32-1.86-1.13-4.39.43-6.06,4.77-5.11,5.18-6.68,5.13-7.91-.05-1.13-1.06-3.65-4.77-12.36-1.78-4.18-4.22-9.91-4.41-10.79-.02-.56-.28-1.93-2.1-2.64-2.93-1.13-11.65-.35-15.27,3.28-.68.68-16.16,16.75,5,46.22,1.9,3.25,5.96,7.98,12.42,14.44,0,0,.01,0,.02.02.01.01.03.03.04.04,6.46,6.46,11.19,10.52,14.45,12.42,11.86,8.52,21.55,11.1,28.94,11.1,10.98,0,16.89-5.7,17.29-6.1,3.63-3.63,4.41-12.35,3.28-15.27-.71-1.81-2.08-2.06-2.47-2.07"/>
</svg>