<svg id="Layer_1" data-name="Layer 1" xmlns="http://www.w3.org/2000/svg" viewBox="0 0 384.3 448"><title>notifications</title><path d="M363.84,319.43C338.16,288,320,272,320,185.35,320,106,279.51,77.73,246.16,64c-4.43-1.82-8.6-6-9.95-10.55C230.36,33.54,214,16,192.16,16s-38.21,17.55-44,37.47c-1.35,4.6-5.52,8.71-9.95,10.53-33.39,13.75-73.87,41.92-73.87,121.35C64.29,272,46.16,288,20.48,319.43,9.84,332.45,19.16,352,37.77,352H346.65C365.16,352,374.42,332.39,363.84,319.43Z" transform="translate(0)" style="fill:#b3baef;stroke:#b3baef;stroke-linecap:round;stroke-linejoin:round;stroke-width:32px"/><path d="M256.16,352v16a64,64,0,0,1-128,0V352" transform="translate(0)" style="fill:none;stroke:#b3baef;stroke-linecap:round;stroke-linejoin:round;stroke-width:32px"/></svg>