<?xml version="1.0" encoding="UTF-8"?>
<svg id="Layer_1" data-name="Layer 1" xmlns="http://www.w3.org/2000/svg" viewBox="0 0 74.35 94">
  <defs>
    <style>
      .cls-1 {
        fill: #fff;
      }
    </style>
  </defs>
  <path class="cls-1" d="m74.27,90.82l-6-61.29c-.12-1.29-1.18-2.24-2.47-2.24h-11.29v-10C54.5,7.76,46.74,0,37.21,0s-17.29,7.76-17.29,17.29v10h-11.29c-1.29,0-2.35.94-2.47,2.24L.03,91.18c-.12.71.12,1.41.59,2s1.18.82,1.88.82h69.29c1.41,0,2.47-1.18,2.47-2.47.12-.35.12-.59,0-.71ZM24.97,17.18c0-6.71,5.41-12.24,12.24-12.24s12.24,5.41,12.24,12.24v10h-24.47v-10Z"/>
</svg>