<?xml version="1.0" encoding="UTF-8"?>
<svg id="Layer_1" data-name="Layer 1" xmlns="http://www.w3.org/2000/svg" viewBox="0 0 92 79.93">
  <defs>
    <style>
      .cls-1 {
        fill: #fff;
      }
    </style>
  </defs>
  <path class="cls-1" d="m69.81,33.69c1-2.46,2.67-4.05,5.11-4.77.12-.04.24-.07.36-.1,2.49-.55,3.13-.04,3.14,2.49,0,3.52,0,7.04,0,10.55,0,1.3-.62,1.89-1.92,1.83-.4-.02-.81-.1-1.2-.19-.36-.08-.71-.19-1.15-.31.09.75.47,1.36.74,1.99,1.4,3.32,2.84,6.62,4.26,9.93.19.44.38.66.94.67,7.02.18,12.17,5.75,11.91,12.81-.26,6.8-6.99,12.21-13.71,11.19-4.76-.72-9.15-4.33-10.18-9.74-.14-.74-.5-.72-1.03-.72-5.59,0-11.18,0-16.77,0-1.48,0-2.95.02-4.43,0-.51,0-.75.09-.86.68-1.12,5.71-6.07,9.79-11.82,9.81-5.7.02-10.6-3.97-11.82-9.69-.14-.64-.34-.83-.96-.81-1.19.04-2.39.02-3.58,0-1.14-.01-1.77-.6-1.74-1.74.14-5.26,1.18-10.25,4.45-14.56.03-.04,0-.11,0-.3-2.37,0-4.74,0-7.11,0-1.8,0-3.18-.79-4.17-2.29-.3-.45-.53-.95-.59-1.47-.08-.71-.46-.79-1.07-.78-1.6.04-3.2.02-4.81.01-1.1,0-1.78-.58-1.79-1.5-.02-.91.68-1.51,1.77-1.51,1.7,0,3.39-.01,5.09.02.54,0,.68-.17.69-.7.05-2.33.06-2.33-2.25-2.33-1.58,0-2.31-.5-2.29-1.57.02-1.01.71-1.45,2.3-1.45,2.1,0,4.21,0,6.31,0,1.25,0,1.97.57,1.94,1.53-.03.96-.7,1.56-1.9,1.45-1.04-.1-1.17.33-1.14,1.21.07,1.84.03,1.84,1.87,1.84.41,0,.82-.02,1.22.01.82.07,1.44.7,1.45,1.46.01.82-.6,1.49-1.47,1.53-.81.04-1.63.04-2.45,0-.64-.03-.6.24-.36.65.33.57.86.85,1.48.86,5.37.02,10.74.02,16.12,0,1.03,0,1.75-.77,1.76-1.83.02-3.8.02-7.6,0-11.4,0-1.1-.74-1.78-1.85-1.84q-2.67-.14-2.67,2.47c0,.66.02,1.32,0,1.98-.02.94-.58,1.56-1.51,1.57-2.51.02-5.03.02-7.54,0-.9,0-1.48-.63-1.5-1.58-.03-1.26-.03-2.51,0-3.77.02-.55-.18-.72-.7-.69-.56.04-1.13.03-1.7.01-.77-.02-1.38.23-1.88.85-.61.76-1.48.86-2.15.33-.66-.51-.76-1.43-.21-2.18.93-1.27,2.19-2,3.75-2,5.43-.03,10.87-.01,16.3,0,1,0,1.92.34,2.7.94.51.4.65.19.82-.28.83-2.24,1.87-4.38,3.36-6.28,1.55-1.97,3.44-3.5,5.83-4.28.97-.32.66-.58.18-1.05-1.95-1.9-3.11-4.18-3.55-6.89-.73-4.55,1.52-9.54,5.47-11.96,7.27-4.44,16.34-.66,18.24,7.63.17.73.27,1.47.28,2.23.01.81-.24,1.43-1.01,1.73-.35.14-.38.32-.36.64.08,1.09.31,2.16,1,2.98,1.32,1.57.73,3.33-.61,4.46-.42.36-.66.74-.84,1.27-.62,1.85-1.84,3.12-3.82,3.5-.51.1-.7.18-.34.66.79,1.06,1.53,2.15,2.43,3.12,1.44,1.56,3.29,1.76,5.2,1.46,2.44-.39,4.54.05,6.31,2.11Zm-23.16,32.65c-.58-1.09-1.05-2-1.24-3.03-.36-2.03-.12-4.07-.16-6.1-.05-2.61-1.84-4.44-4.45-4.45-4.58,0-9.17-.02-13.75,0-2.93.02-5.08,1.36-6.4,4-1.36,2.71-2.14,5.58-2.49,8.6-.09.82.04.99.85.99,8.85-.03,17.71-.02,26.56-.01.31,0,.61,0,1.08,0Zm-7.1-24.13c1.79,0,3.58-.02,5.37.01.6.01.96-.07,1.11-.78.2-.94.61-1.84,1.12-2.68.48-.8,1.48-1.57,1.45-2.32-.03-.82-1-1.59-1.52-2.42-.65-1.03-.51-1.86.33-2.35.85-.5,1.57-.22,2.22.85,1.88,3.07,4.53,5.15,7.99,6.2.57.17.85.18.86-.56.01-1.13.27-2.25.83-3.24.31-.55.12-.66-.35-.82-.81-.28-1.5-.76-2.16-1.31-1.73-1.42-2.87-3.32-4.15-5.1-3.33-4.61-10.29-4.66-13.82-.9-3.88,4.14-5.13,9.33-5.68,14.78-.06.62.28.64.74.64,1.88-.01,3.77,0,5.66,0Zm27.98,24.13c.66,0,1.32-.03,1.98.01.44.03.71-.15.94-.48,1.94-2.73,3.88-5.47,5.84-8.19.28-.4.34-.73.13-1.2-2.2-5.08-4.37-10.18-6.54-15.28-.21-.5-.42-.64-.98-.39-1.78.81-3.66,1.25-5.62,1.37-1.08.07-1.08.05-.82,1.16,1.16,4.91,2.32,9.82,3.45,14.74.33,1.45.74,2.89.46,4.43-.21,1.16-.55,2.24-1.16,3.25-.27.44-.19.6.34.58.66-.02,1.32,0,1.98,0Zm-11.93-55.8c.98,0,1.64-.03,2.3,0,.66.04.78-.14.6-.8-1.21-4.55-5.46-7.31-10.2-6.58-4.14.64-7.43,4.36-7.6,8.61-.17,4.15,2.77,8.01,6.83,9.04.69.18.73-.08.72-.61-.02-1.19-.02-2.39,0-3.58.02-1.61.62-2.99,1.72-4.15,1.63-1.72,3.7-2.13,5.63-1.93Zm-14.66,34.68c-2.67,0-4.84.02-7-.01-.63-.01-.82.19-.8.8.03.94.13,1.91-.07,2.81-.21.92.1.95.84.94,2.39-.04,4.77-.03,7.16,0,3.38.02,6.28,2.42,7,5.73.3,1.34.14,2.69.15,4.03,0,.62.17.83.79.81,1.51-.04,3.01-.04,4.52,0,.66.02.77-.24.76-.82-.03-2.35,0-4.71-.01-7.06-.02-3.72-2.45-6.49-6.13-7.04-2.56-.38-5.14-.05-7.2-.18Zm20.8,19.95c1.66-1.37,1.89-3.09,1.52-4.8-1.28-5.88-2.69-11.73-4.03-17.6-.12-.52-.34-.7-.85-.79-2.02-.36-3.89-1.11-5.68-2.13-.63-.36-1.14-1.37-1.91-.96-.63.33-.95,1.21-1.27,1.93-.1.23-.21.45-.32.68-.29.62-.28.93.57,1.13,4.6,1.13,7.59,5.24,7.52,9.68-.04,2.48,0,4.96,0,7.44,0,.38-.05.75.44.9,2.18.67,3.41,2.21,4.01,4.52Zm14.51-2.27c.6-.28.95-.45,1.31-.6,2.96-1.27,6.41.03,7.8,2.93,1.39,2.9.24,6.43-2.59,7.92-2.88,1.52-6.53.61-7.95-2.29-.69-1.4-1.5-1.69-2.8-1.52-.09.01-.19.01-.28,0-.61-.07-.71.14-.57.75,1.02,4.47,5.65,7.46,10.34,6.63,4.62-.81,7.91-5.12,7.44-9.72-.49-4.73-4.49-8.31-9.18-8.22-.36,0-.66.04-.89.38-.81,1.18-1.64,2.34-2.62,3.73Zm-50.2,6.44c-.37,0-.55,0-.74,0q-1.13,0-.83,1.07c1.07,3.79,4.74,6.49,8.82,6.48,3.85,0,7.52-2.79,8.53-6.48q.29-1.06-.81-1.07c-.41,0-.82.03-1.22,0-.59-.06-.86.16-1.1.73-1,2.36-2.87,3.65-5.4,3.73-2.45.07-4.4-1.07-5.46-3.3-.47-.98-.96-1.36-1.79-1.14Zm25.2-50.24c0,.5,0,.81,0,1.13,0,2.53.31,2.87,2.88,3.13.25.03.5.03.75.03,1.37,0,2.18-.55,2.34-1.91.11-.96.47-1.57,1.29-2,.48-.25.53-.55.2-1.05-.52-.78-.81-1.68-1.09-2.58-.24-.76.09-1.89-.69-2.23-.74-.32-1.73-.1-2.61-.06-1.44.06-2.53.96-2.92,2.36-.31,1.11-.05,2.25-.15,3.18Zm1.34,44.22h0c-1.16,0-2.32.02-3.47,0-.47,0-.54.13-.34.54.59,1.2,1.52,2.03,2.81,2.28,2.22.44,4.49.17,6.73.14.49,0,.51-.33.42-.73-.28-1.29-1.37-2.2-2.77-2.24-1.13-.03-2.25,0-3.38,0Zm10.27-24.13c1.54-.11,3.24-.48,4.85-1.2.23-.1.62-.16.5-.55-.34-1.11-.67-2.22-1.89-2.75-2.1-.91-4.37.55-4.84,3.12-.2,1.1.05,1.4,1.38,1.39Zm12.53-2.92c0-1.22-.01-2.45,0-3.67,0-.54-.14-.69-.64-.41-1.56.88-2.36,2.24-2.37,4,0,1.77.84,3.09,2.39,3.97.54.31.63.11.62-.41-.02-1.16,0-2.32,0-3.48Zm2.08,33.08c.62,1.17,1.87,1.73,3.04,1.46,1.38-.32,2.34-1.42,2.41-2.77.08-1.4-.72-2.58-2.05-3.03-1.12-.38-2.65.05-3.25.88-.31.44-.05.46.29.46.6,0,1.19-.01,1.79,0,1.03.02,1.7.62,1.7,1.48,0,.9-.66,1.5-1.67,1.52-.74.02-1.48,0-2.28,0Zm-57.14-31.67q2.38,0,2.27-2.38s0-.06,0-.09c.05-.4-.12-.56-.53-.56-1.16.02-2.31.02-3.47,0-.34,0-.49.08-.54.45-.33,2.41-.21,2.57,2.17,2.57.03,0,.06,0,.09,0Zm10.4,31.68c.77,1.73,3.4,1.97,4.64.5.27-.32.22-.5-.22-.5-1.46,0-2.91,0-4.41,0Z"/>
</svg>