<svg id="Layer_1" data-name="Layer 1" xmlns="http://www.w3.org/2000/svg" viewBox="0 0 17 21">
    <title>Profile</title>
    <g id="Iconly_Bold_Profile" data-name="Iconly Bold Profile">
        <g id="Profile">
            <path d="M6.35,14.05a26,26,0,0,1,4.32,0,18.24,18.24,0,0,1,2.34.29c1.67.34,2.76.89,3.23,1.78a2.48,2.48,0,0,1,0,2.22c-.47.89-1.52,1.47-3.25,1.78a18.33,18.33,0,0,1-2.33.3,19.49,19.49,0,0,1-2.16.08H7.14a5.37,5.37,0,0,0-.8-.05A15.28,15.28,0,0,1,4,20.15c-1.67-.32-2.76-.89-3.22-1.78A2.44,2.44,0,0,1,.5,17.25a2.47,2.47,0,0,1,.27-1.13c.46-.89,1.55-1.47,3.23-1.78A17,17,0,0,1,6.35,14.05ZM8.5.5a5.33,5.33,0,0,1,5.25,5.4A5.33,5.33,0,0,1,8.5,11.3,5.33,5.33,0,0,1,3.25,5.9,5.33,5.33,0,0,1,8.5.5Z" transform="translate(0 0)" fill="none" stroke="#000" stroke-miterlimit="10" />
        </g>
    </g>
</svg>