<?xml version="1.0" encoding="UTF-8"?>
<svg id="Layer_1" data-name="Layer 1" xmlns="http://www.w3.org/2000/svg" viewBox="0 0 91.95 92.03">
  <defs>
    <style>
      .cls-1 {
        fill: #fff;
      }
    </style>
  </defs>
  <path class="cls-1" d="m83.05,90.55v-38.56c0-.82-.66-1.48-1.48-1.48H10.38c-.82,0-1.48.66-1.48,1.48v38.56c0,.82.66,1.48,1.48,1.48h0c.82,0,1.48-.66,1.48-1.48v-37.08h68.22v37.08c0,.82.66,1.48,1.48,1.48h0c.82,0,1.48-.66,1.48-1.48Z"/>
  <path class="cls-1" d="m91.23,44.79l-28.03-16.82c5.25-10.45.1-23.4-11.54-27.09-6.75-2.14-14.27-.29-19.26,4.73-6.08,6.11-7.3,15.1-3.65,22.36L.72,44.79C.27,45.05,0,45.54,0,46.06v44.49c0,.82.66,1.48,1.48,1.48h0c.82,0,1.48-.66,1.48-1.48v-43.65s27.31-16.38,27.31-16.38c6.13,8.67,18.12,10.73,26.79,4.61,1.79-1.26,3.34-2.82,4.61-4.61l27.31,16.38v43.65c0,.82.66,1.48,1.48,1.48h0c.82,0,1.48-.66,1.48-1.48v-44.49c0-.52-.27-1-.72-1.27Zm-45.26-9.11c-9.27,0-16.73-7.72-16.3-17.08.38-8.31,7.22-15.14,15.53-15.53,9.36-.43,17.08,7.03,17.08,16.3-.01,9.01-7.31,16.3-16.31,16.31Z"/>
  <path class="cls-1" d="m40.73,24.39l-2.1-2.1c-.58-.58-1.52-.58-2.1,0h0c-.58.58-.58,1.52,0,2.1l3.15,3.15c.58.58,1.52.58,2.1,0l13.63-13.63c.58-.58.58-1.52,0-2.1h0c-.58-.58-1.51-.58-2.09,0l-12.59,12.58Z"/>
  <path class="cls-1" d="m57.84,59.4h-29.66c-.82,0-1.48.66-1.48,1.48v13.35h-2.97c-.82,0-1.48.66-1.48,1.48v14.83c0,.82.66,1.48,1.48,1.48h44.49c.82,0,1.48-.66,1.48-1.48v-14.83c0-.82-.66-1.48-1.48-1.48h-8.9v-13.35c0-.82-.66-1.48-1.48-1.48Zm-20.76,29.66h-11.86v-11.86h4.45v2.97h2.97v-2.97h4.45v11.86Zm-7.42-14.83v-11.86h4.45v2.97h2.97v-2.97h4.45v11.86h-11.86Zm22.25,14.83h-11.86v-11.86h4.45v2.97h2.97v-2.97h4.45v11.86Zm-7.42-14.83v-11.86h4.45v2.97h2.97v-2.97h4.45v11.86h-11.86Zm17.8,5.93v-2.97h4.45v11.86h-11.86v-11.86h4.45v2.97h2.97Z"/>
</svg>