<?xml version="1.0" encoding="UTF-8"?>
<svg id="Layer_1" data-name="Layer 1" xmlns="http://www.w3.org/2000/svg" viewBox="0 0 97.84 84.64">
  <defs>
    <style>
      .cls-1 {
        fill: #fff;
      }
    </style>
  </defs>
  <g>
    <path class="cls-1" d="m31.84,0C21.35,0,12.84,8.51,12.84,19s8.51,19,19,19,19-8.51,19-19S42.33,0,31.84,0Zm0,34c-8.28,0-15-6.72-15-15s6.72-15,15-15,15,6.72,15,15-6.72,15-15,15Z"/>
    <path class="cls-1" d="m49.44,84.64H15.36c-.22-.07-.44-.19-.66-.22-6.6-.94-11.13-4.53-13.6-10.69C.59,72.46.36,71.09,0,69.76c0-1.44,0-2.88,0-4.32.26-1.16.48-2.33.78-3.48,2.46-9.45,10.89-16.52,20.59-16.88,6.83-.25,13.68-.08,20.51-.08,10.72,0,19.72,7.12,22.22,17.58.26,1.1.46,2.22.69,3.33v3.6c-.07.14-.19.26-.21.41-1.09,7.32-5.23,11.98-12.29,14.08-.93.28-1.91.42-2.87.63Zm-17.08-4.11c5.12,0,10.24.04,15.36-.01,4.66-.05,8.46-1.88,11.01-5.87,2.07-3.23,2.22-6.78,1.56-10.49-1.52-8.47-9.19-15.03-17.79-15.05-6.72-.02-13.44,0-20.16,0-.6,0-1.21-.02-1.79.08-8.31,1.38-13.72,6.05-15.88,14.25-1.01,3.82-.85,7.61,1.3,11.07,2.52,4.08,6.33,5.95,11.05,6.01,5.12.06,10.24.01,15.36.01Z"/>
    <path class="cls-1" d="m76.27,16.28c8.44,0,15.57,7.13,15.57,15.57s-7.13,15.57-15.57,15.57-15.57-7.13-15.57-15.57,7.13-15.57,15.57-15.57m0-4c-10.71,0-19.57,8.86-19.57,19.57s8.86,19.57,19.57,19.57,19.57-8.86,19.57-19.57-8.86-19.57-19.57-19.57h0Z"/>
  </g>
  <rect class="cls-1" x="73.84" y="27" width="5" height="18" rx="2.5" ry="2.5"/>
  <circle class="cls-1" cx="76.34" cy="21.5" r="2.5"/>
</svg>